<svg xmlns="http://www.w3.org/2000/svg" xmlns:xlink="http://www.w3.org/1999/xlink" contentStyleType="text/css" height="1018px" preserveAspectRatio="none" style="width:2528px;height:1018px;background:#FFFFFF;" version="1.1" viewBox="0 0 2528 1018" width="2528px" zoomAndPan="magnify"><defs/><g><!--cluster Client Side--><g id="cluster_Client Side"><path d="M1343.5,6 L1429.7988,6 A3.75,3.75 0 0 1 1432.2988,8.5 L1439.2988,28.2969 L2059.5,28.2969 A2.5,2.5 0 0 1 2062,30.7969 L2062,339.36 A2.5,2.5 0 0 1 2059.5,341.86 L1343.5,341.86 A2.5,2.5 0 0 1 1341,339.36 L1341,8.5 A2.5,2.5 0 0 1 1343.5,6 " fill="none" style="stroke:#000000;stroke-width:1.5;"/><line style="stroke:#000000;stroke-width:1.5;" x1="1341" x2="1439.2988" y1="28.2969" y2="28.2969"/><text fill="#000000" font-family="sans-serif" font-size="14" font-weight="bold" lengthAdjust="spacing" textLength="85.2988" x="1345" y="20.9951">Client Side</text></g><!--cluster Web Browser--><g id="cluster_Web Browser"><polygon fill="none" points="1373,67,1383,57,2030,57,2030,299.86,2020,309.86,1373,309.86,1373,67" style="stroke:#181818;stroke-width:1.0;"/><line style="stroke:#181818;stroke-width:1.0;" x1="2020" x2="2030" y1="67" y2="57"/><line style="stroke:#181818;stroke-width:1.0;" x1="1373" x2="2020" y1="67" y2="67"/><line style="stroke:#181818;stroke-width:1.0;" x1="2020" x2="2020" y1="67" y2="309.86"/><text fill="#000000" font-family="sans-serif" font-size="14" font-style="italic" lengthAdjust="spacing" textLength="63.2666" x="1665.8667" y="82.9951">&#171;device&#187;</text><text fill="#000000" font-family="sans-serif" font-size="14" font-weight="bold" lengthAdjust="spacing" textLength="104.6924" x="1645.1538" y="99.292">Web Browser</text></g><!--cluster AWS Services--><g id="cluster_AWS Services"><path d="M8.5,733.72 L117.2686,733.72 A3.75,3.75 0 0 1 119.7686,736.22 L126.7686,756.0169 L863.5,756.0169 A2.5,2.5 0 0 1 866,758.5169 L866,1009.22 A2.5,2.5 0 0 1 863.5,1011.72 L8.5,1011.72 A2.5,2.5 0 0 1 6,1009.22 L6,736.22 A2.5,2.5 0 0 1 8.5,733.72 " fill="none" style="stroke:#000000;stroke-width:1.5;"/><line style="stroke:#000000;stroke-width:1.5;" x1="6" x2="126.7686" y1="756.0169" y2="756.0169"/><text fill="#000000" font-family="sans-serif" font-size="14" font-weight="bold" lengthAdjust="spacing" textLength="107.7686" x="10" y="748.7151">AWS Services</text></g><!--cluster AWS S3 Bucket--><g id="cluster_AWS S3 Bucket"><polygon fill="none" points="447,798.72,457,788.72,834,788.72,834,969.72,824,979.72,447,979.72,447,798.72" style="stroke:#181818;stroke-width:1.0;"/><line style="stroke:#181818;stroke-width:1.0;" x1="824" x2="834" y1="798.72" y2="788.72"/><line style="stroke:#181818;stroke-width:1.0;" x1="447" x2="824" y1="798.72" y2="798.72"/><line style="stroke:#181818;stroke-width:1.0;" x1="824" x2="824" y1="798.72" y2="979.72"/><text fill="#000000" font-family="sans-serif" font-size="14" font-style="italic" lengthAdjust="spacing" textLength="63.2666" x="604.8667" y="814.7151">&#171;device&#187;</text><text fill="#000000" font-family="sans-serif" font-size="14" font-weight="bold" lengthAdjust="spacing" textLength="120.3672" x="576.3164" y="831.012">AWS S3 Bucket</text></g><!--cluster Authentication--><g id="cluster_Authentication"><polygon fill="none" points="222,806.72,232,796.72,415,796.72,415,961.72,405,971.72,222,971.72,222,806.72" style="stroke:#181818;stroke-width:1.0;"/><line style="stroke:#181818;stroke-width:1.0;" x1="405" x2="415" y1="806.72" y2="796.72"/><line style="stroke:#181818;stroke-width:1.0;" x1="222" x2="405" y1="806.72" y2="806.72"/><line style="stroke:#181818;stroke-width:1.0;" x1="405" x2="405" y1="806.72" y2="971.72"/><text fill="#000000" font-family="sans-serif" font-size="14" font-style="italic" lengthAdjust="spacing" textLength="63.2666" x="282.8667" y="822.7151">&#171;device&#187;</text><text fill="#000000" font-family="sans-serif" font-size="14" font-weight="bold" lengthAdjust="spacing" textLength="117.2363" x="255.8818" y="839.012">Authentication</text></g><!--cluster Database--><g id="cluster_Database"><path d="M30,786.72 C30,776.72 114,776.72 114,776.72 C114,776.72 198,776.72 198,786.72 L198,961.72 C198,971.72 114,971.72 114,971.72 C114,971.72 30,971.72 30,961.72 L30,786.72 " fill="none" style="stroke:#181818;stroke-width:1.0;"/><path d="M30,786.72 C30,796.72 114,796.72 114,796.72 C114,796.72 198,796.72 198,786.72 " fill="none" style="stroke:#181818;stroke-width:1.0;"/><text fill="#000000" font-family="sans-serif" font-size="14" font-style="italic" lengthAdjust="spacing" textLength="63.2666" x="82.3667" y="811.7151">&#171;device&#187;</text><text fill="#000000" font-family="sans-serif" font-size="14" font-weight="bold" lengthAdjust="spacing" textLength="74.5049" x="76.7476" y="828.012">Database</text></g><!--cluster Backend--><g id="cluster_Backend"><path d="M1544.5,390.86 L1612.7109,390.86 A3.75,3.75 0 0 1 1615.2109,393.36 L1622.2109,413.1569 L2195.5,413.1569 A2.5,2.5 0 0 1 2198,415.6569 L2198,1009.22 A2.5,2.5 0 0 1 2195.5,1011.72 L1544.5,1011.72 A2.5,2.5 0 0 1 1542,1009.22 L1542,393.36 A2.5,2.5 0 0 1 1544.5,390.86 " fill="none" style="stroke:#000000;stroke-width:1.5;"/><line style="stroke:#000000;stroke-width:1.5;" x1="1542" x2="1622.2109" y1="413.1569" y2="413.1569"/><text fill="#000000" font-family="sans-serif" font-size="14" font-weight="bold" lengthAdjust="spacing" textLength="67.2109" x="1546" y="405.8551">Backend</text></g><!--cluster Application Server--><g id="cluster_Application Server"><polygon fill="none" points="1574,451.86,1584,441.86,2166,441.86,2166,969.72,2156,979.72,1574,979.72,1574,451.86" style="stroke:#181818;stroke-width:1.0;"/><line style="stroke:#181818;stroke-width:1.0;" x1="2156" x2="2166" y1="451.86" y2="441.86"/><line style="stroke:#181818;stroke-width:1.0;" x1="1574" x2="2156" y1="451.86" y2="451.86"/><line style="stroke:#181818;stroke-width:1.0;" x1="2156" x2="2156" y1="451.86" y2="979.72"/><text fill="#000000" font-family="sans-serif" font-size="14" font-style="italic" lengthAdjust="spacing" textLength="63.2666" x="1834.3667" y="467.8551">&#171;device&#187;</text><text fill="#000000" font-family="sans-serif" font-size="14" font-weight="bold" lengthAdjust="spacing" textLength="146.1797" x="1792.9102" y="484.152">Application Server</text></g><!--cluster External Services--><g id="cluster_External Services"><path d="M892.5,753.72 L1030.8066,753.72 A3.75,3.75 0 0 1 1033.3066,756.22 L1040.3066,776.0169 L1430.5,776.0169 A2.5,2.5 0 0 1 1433,778.5169 L1433,993.22 A2.5,2.5 0 0 1 1430.5,995.72 L892.5,995.72 A2.5,2.5 0 0 1 890,993.22 L890,756.22 A2.5,2.5 0 0 1 892.5,753.72 " fill="none" style="stroke:#000000;stroke-width:1.5;"/><line style="stroke:#000000;stroke-width:1.5;" x1="890" x2="1040.3066" y1="776.0169" y2="776.0169"/><text fill="#000000" font-family="sans-serif" font-size="14" font-weight="bold" lengthAdjust="spacing" textLength="137.3066" x="894" y="768.7151">External Services</text></g><!--cluster External Payment Gateway--><g id="cluster_External Payment Gateway"><polygon fill="none" points="1120,806.72,1130,796.72,1409,796.72,1409,961.72,1399,971.72,1120,971.72,1120,806.72" style="stroke:#181818;stroke-width:1.0;"/><line style="stroke:#181818;stroke-width:1.0;" x1="1399" x2="1409" y1="806.72" y2="796.72"/><line style="stroke:#181818;stroke-width:1.0;" x1="1120" x2="1399" y1="806.72" y2="806.72"/><line style="stroke:#181818;stroke-width:1.0;" x1="1399" x2="1399" y1="806.72" y2="971.72"/><text fill="#000000" font-family="sans-serif" font-size="14" font-style="italic" lengthAdjust="spacing" textLength="63.2666" x="1228.8667" y="822.7151">&#171;device&#187;</text><text fill="#000000" font-family="sans-serif" font-size="14" font-weight="bold" lengthAdjust="spacing" textLength="213.8555" x="1153.5723" y="839.012">External Payment Gateway</text></g><!--cluster Email Service--><g id="cluster_Email Service"><polygon fill="none" points="914,806.72,924,796.72,1096,796.72,1096,961.72,1086,971.72,914,971.72,914,806.72" style="stroke:#181818;stroke-width:1.0;"/><line style="stroke:#181818;stroke-width:1.0;" x1="1086" x2="1096" y1="806.72" y2="796.72"/><line style="stroke:#181818;stroke-width:1.0;" x1="914" x2="1086" y1="806.72" y2="806.72"/><line style="stroke:#181818;stroke-width:1.0;" x1="1086" x2="1086" y1="806.72" y2="971.72"/><text fill="#000000" font-family="sans-serif" font-size="14" font-style="italic" lengthAdjust="spacing" textLength="63.2666" x="969.3667" y="822.7151">&#171;device&#187;</text><text fill="#000000" font-family="sans-serif" font-size="14" font-weight="bold" lengthAdjust="spacing" textLength="106.2715" x="947.8643" y="839.012">Email Service</text></g><!--entity Student--><g id="elem_Student"><rect fill="#F1F1F1" height="62.5938" rx="2.5" ry="2.5" style="stroke:#181818;stroke-width:0.5;" width="136.4824" x="1462" y="161"/><rect fill="#F1F1F1" height="10" style="stroke:#181818;stroke-width:0.5;" width="15" x="1578.4824" y="166"/><rect fill="#F1F1F1" height="2" style="stroke:#181818;stroke-width:0.5;" width="4" x="1576.4824" y="168"/><rect fill="#F1F1F1" height="2" style="stroke:#181818;stroke-width:0.5;" width="4" x="1576.4824" y="172"/><text fill="#000000" font-family="sans-serif" font-size="14" font-style="italic" lengthAdjust="spacing" textLength="96.4824" x="1477" y="193.9951">&#171;component&#187;</text><text fill="#000000" font-family="sans-serif" font-size="14" lengthAdjust="spacing" textLength="55.1113" x="1497.6855" y="210.292">Student</text></g><!--entity Instructor--><g id="elem_Instructor"><rect fill="#F1F1F1" height="62.5938" rx="2.5" ry="2.5" style="stroke:#181818;stroke-width:0.5;" width="136.4824" x="1633" y="161"/><rect fill="#F1F1F1" height="10" style="stroke:#181818;stroke-width:0.5;" width="15" x="1749.4824" y="166"/><rect fill="#F1F1F1" height="2" style="stroke:#181818;stroke-width:0.5;" width="4" x="1747.4824" y="168"/><rect fill="#F1F1F1" height="2" style="stroke:#181818;stroke-width:0.5;" width="4" x="1747.4824" y="172"/><text fill="#000000" font-family="sans-serif" font-size="14" font-style="italic" lengthAdjust="spacing" textLength="96.4824" x="1648" y="193.9951">&#171;component&#187;</text><text fill="#000000" font-family="sans-serif" font-size="14" lengthAdjust="spacing" textLength="67.9219" x="1662.2803" y="210.292">Instructor</text></g><!--entity Admin--><g id="elem_Admin"><rect fill="#F1F1F1" height="62.5938" rx="2.5" ry="2.5" style="stroke:#181818;stroke-width:0.5;" width="136.4824" x="1804" y="161"/><rect fill="#F1F1F1" height="10" style="stroke:#181818;stroke-width:0.5;" width="15" x="1920.4824" y="166"/><rect fill="#F1F1F1" height="2" style="stroke:#181818;stroke-width:0.5;" width="4" x="1918.4824" y="168"/><rect fill="#F1F1F1" height="2" style="stroke:#181818;stroke-width:0.5;" width="4" x="1918.4824" y="172"/><text fill="#000000" font-family="sans-serif" font-size="14" font-style="italic" lengthAdjust="spacing" textLength="96.4824" x="1819" y="193.9951">&#171;component&#187;</text><text fill="#000000" font-family="sans-serif" font-size="14" lengthAdjust="spacing" textLength="44.8643" x="1844.8091" y="210.292">Admin</text></g><!--entity Course Content--><g id="elem_Course Content"><rect fill="#F1F1F1" height="62.5938" rx="2.5" ry="2.5" style="stroke:#181818;stroke-width:0.5;" width="149.0059" x="661.5" y="892.72"/><rect fill="#F1F1F1" height="10" style="stroke:#181818;stroke-width:0.5;" width="15" x="790.5059" y="897.72"/><rect fill="#F1F1F1" height="2" style="stroke:#181818;stroke-width:0.5;" width="4" x="788.5059" y="899.72"/><rect fill="#F1F1F1" height="2" style="stroke:#181818;stroke-width:0.5;" width="4" x="788.5059" y="903.72"/><text fill="#000000" font-family="sans-serif" font-size="14" font-style="italic" lengthAdjust="spacing" textLength="96.4824" x="682.7617" y="925.7151">&#171;component&#187;</text><text fill="#000000" font-family="sans-serif" font-size="14" lengthAdjust="spacing" textLength="109.0059" x="676.5" y="942.012">Course Content</text></g><!--entity Transcripts--><g id="elem_Transcripts"><rect fill="#F1F1F1" height="62.5938" rx="2.5" ry="2.5" style="stroke:#181818;stroke-width:0.5;" width="136.4824" x="490" y="892.72"/><rect fill="#F1F1F1" height="10" style="stroke:#181818;stroke-width:0.5;" width="15" x="606.4824" y="897.72"/><rect fill="#F1F1F1" height="2" style="stroke:#181818;stroke-width:0.5;" width="4" x="604.4824" y="899.72"/><rect fill="#F1F1F1" height="2" style="stroke:#181818;stroke-width:0.5;" width="4" x="604.4824" y="903.72"/><text fill="#000000" font-family="sans-serif" font-size="14" font-style="italic" lengthAdjust="spacing" textLength="96.4824" x="505" y="925.7151">&#171;component&#187;</text><text fill="#000000" font-family="sans-serif" font-size="14" lengthAdjust="spacing" textLength="78.0664" x="514.208" y="942.012">Transcripts</text></g><!--entity AWS Cognito--><g id="elem_AWS Cognito"><rect fill="#F1F1F1" height="62.5938" rx="2.5" ry="2.5" style="stroke:#181818;stroke-width:0.5;" width="136.4824" x="245" y="892.72"/><rect fill="#F1F1F1" height="10" style="stroke:#181818;stroke-width:0.5;" width="15" x="361.4824" y="897.72"/><rect fill="#F1F1F1" height="2" style="stroke:#181818;stroke-width:0.5;" width="4" x="359.4824" y="899.72"/><rect fill="#F1F1F1" height="2" style="stroke:#181818;stroke-width:0.5;" width="4" x="359.4824" y="903.72"/><text fill="#000000" font-family="sans-serif" font-size="14" font-style="italic" lengthAdjust="spacing" textLength="96.4824" x="260" y="925.7151">&#171;component&#187;</text><text fill="#000000" font-family="sans-serif" font-size="14" lengthAdjust="spacing" textLength="90.8018" x="262.8403" y="942.012">AWS Cognito</text></g><!--entity AWS RDS--><g id="elem_AWS RDS"><rect fill="#F1F1F1" height="62.5938" rx="2.5" ry="2.5" style="stroke:#181818;stroke-width:0.5;" width="136.4824" x="46" y="892.72"/><rect fill="#F1F1F1" height="10" style="stroke:#181818;stroke-width:0.5;" width="15" x="162.4824" y="897.72"/><rect fill="#F1F1F1" height="2" style="stroke:#181818;stroke-width:0.5;" width="4" x="160.4824" y="899.72"/><rect fill="#F1F1F1" height="2" style="stroke:#181818;stroke-width:0.5;" width="4" x="160.4824" y="903.72"/><text fill="#000000" font-family="sans-serif" font-size="14" font-style="italic" lengthAdjust="spacing" textLength="96.4824" x="61" y="925.7151">&#171;component&#187;</text><text fill="#000000" font-family="sans-serif" font-size="14" lengthAdjust="spacing" textLength="66.1514" x="76.1655" y="942.012">AWS RDS</text></g><!--entity PaymentService--><g id="elem_PaymentService"><rect fill="#F1F1F1" height="62.5938" rx="2.5" ry="2.5" style="stroke:#181818;stroke-width:0.5;" width="153.6611" x="1817" y="607.72"/><rect fill="#F1F1F1" height="10" style="stroke:#181818;stroke-width:0.5;" width="15" x="1950.6611" y="612.72"/><rect fill="#F1F1F1" height="2" style="stroke:#181818;stroke-width:0.5;" width="4" x="1948.6611" y="614.72"/><rect fill="#F1F1F1" height="2" style="stroke:#181818;stroke-width:0.5;" width="4" x="1948.6611" y="618.72"/><text fill="#000000" font-family="sans-serif" font-size="14" font-style="italic" lengthAdjust="spacing" textLength="96.4824" x="1840.5894" y="640.7151">&#171;component&#187;</text><text fill="#000000" font-family="sans-serif" font-size="14" lengthAdjust="spacing" textLength="113.6611" x="1832" y="657.012">PaymentService</text></g><!--entity TranscriptionService--><g id="elem_TranscriptionService"><rect fill="#F1F1F1" height="62.5938" rx="2.5" ry="2.5" style="stroke:#181818;stroke-width:0.5;" width="183.8418" x="1598" y="607.72"/><rect fill="#F1F1F1" height="10" style="stroke:#181818;stroke-width:0.5;" width="15" x="1761.8418" y="612.72"/><rect fill="#F1F1F1" height="2" style="stroke:#181818;stroke-width:0.5;" width="4" x="1759.8418" y="614.72"/><rect fill="#F1F1F1" height="2" style="stroke:#181818;stroke-width:0.5;" width="4" x="1759.8418" y="618.72"/><text fill="#000000" font-family="sans-serif" font-size="14" font-style="italic" lengthAdjust="spacing" textLength="96.4824" x="1636.6797" y="640.7151">&#171;component&#187;</text><text fill="#000000" font-family="sans-serif" font-size="14" lengthAdjust="spacing" textLength="143.8418" x="1613" y="657.012">TranscriptionService</text></g><!--entity ilim-backend--><g id="elem_ilim-backend"><rect fill="#F1F1F1" height="62.5938" rx="2.5" ry="2.5" style="stroke:#181818;stroke-width:0.5;" width="136.4824" x="2006" y="607.72"/><rect fill="#F1F1F1" height="10" style="stroke:#181818;stroke-width:0.5;" width="15" x="2122.4824" y="612.72"/><rect fill="#F1F1F1" height="2" style="stroke:#181818;stroke-width:0.5;" width="4" x="2120.4824" y="614.72"/><rect fill="#F1F1F1" height="2" style="stroke:#181818;stroke-width:0.5;" width="4" x="2120.4824" y="618.72"/><text fill="#000000" font-family="sans-serif" font-size="14" font-style="italic" lengthAdjust="spacing" textLength="96.4824" x="2021" y="640.7151">&#171;component&#187;</text><text fill="#000000" font-family="sans-serif" font-size="14" lengthAdjust="spacing" textLength="90.002" x="2024.2402" y="657.012">ilim-backend</text></g><!--entity EmailSender--><g id="elem_EmailSender"><rect fill="#F1F1F1" height="62.5938" rx="2.5" ry="2.5" style="stroke:#181818;stroke-width:0.5;" width="136.4824" x="1598" y="892.72"/><rect fill="#F1F1F1" height="10" style="stroke:#181818;stroke-width:0.5;" width="15" x="1714.4824" y="897.72"/><rect fill="#F1F1F1" height="2" style="stroke:#181818;stroke-width:0.5;" width="4" x="1712.4824" y="899.72"/><rect fill="#F1F1F1" height="2" style="stroke:#181818;stroke-width:0.5;" width="4" x="1712.4824" y="903.72"/><text fill="#000000" font-family="sans-serif" font-size="14" font-style="italic" lengthAdjust="spacing" textLength="96.4824" x="1613" y="925.7151">&#171;component&#187;</text><text fill="#000000" font-family="sans-serif" font-size="14" lengthAdjust="spacing" textLength="88.4707" x="1617.0059" y="942.012">EmailSender</text></g><!--entity PaymentGateway--><g id="elem_PaymentGateway"><rect fill="#F1F1F1" height="62.5938" rx="2.5" ry="2.5" style="stroke:#181818;stroke-width:0.5;" width="163.7646" x="1229" y="892.72"/><rect fill="#F1F1F1" height="10" style="stroke:#181818;stroke-width:0.5;" width="15" x="1372.7646" y="897.72"/><rect fill="#F1F1F1" height="2" style="stroke:#181818;stroke-width:0.5;" width="4" x="1370.7646" y="899.72"/><rect fill="#F1F1F1" height="2" style="stroke:#181818;stroke-width:0.5;" width="4" x="1370.7646" y="903.72"/><text fill="#000000" font-family="sans-serif" font-size="14" font-style="italic" lengthAdjust="spacing" textLength="96.4824" x="1257.6411" y="925.7151">&#171;component&#187;</text><text fill="#000000" font-family="sans-serif" font-size="14" lengthAdjust="spacing" textLength="123.7646" x="1244" y="942.012">PaymentGateway</text></g><!--entity EmailGateway--><g id="elem_EmailGateway"><rect fill="#F1F1F1" height="62.5938" rx="2.5" ry="2.5" style="stroke:#181818;stroke-width:0.5;" width="140.6865" x="930.5" y="892.72"/><rect fill="#F1F1F1" height="10" style="stroke:#181818;stroke-width:0.5;" width="15" x="1051.1865" y="897.72"/><rect fill="#F1F1F1" height="2" style="stroke:#181818;stroke-width:0.5;" width="4" x="1049.1865" y="899.72"/><rect fill="#F1F1F1" height="2" style="stroke:#181818;stroke-width:0.5;" width="4" x="1049.1865" y="903.72"/><text fill="#000000" font-family="sans-serif" font-size="14" font-style="italic" lengthAdjust="spacing" textLength="96.4824" x="947.6021" y="925.7151">&#171;component&#187;</text><text fill="#000000" font-family="sans-serif" font-size="14" lengthAdjust="spacing" textLength="100.6865" x="945.5" y="942.012">EmailGateway</text></g><!--link Student to Web Browser--><g id="link_Student_Web Browser"><path d="M1461.66,212.38 C1425.22,225.85 1391.85,245.97 1413,271 C1438.34,301 1579.3,301.0231 1583.89,301.0131 " fill="none" id="Student-to-Web Browser" style="stroke:#181818;stroke-width:1.0;"/><polygon fill="#181818" points="1589.89,301,1580.8813,297.0196,1584.89,301.0109,1580.8987,305.0196,1589.89,301" style="stroke:#181818;stroke-width:1.0;"/><text fill="#000000" font-family="sans-serif" font-size="13" lengthAdjust="spacing" textLength="133.9292" x="1414" y="267.0669">Login/Access Course</text></g><!--link Instructor to Web Browser--><g id="link_Instructor_Web Browser"><path d="M1644.64,224.16 C1634.77,229.47 1624.6,234.92 1615,240 C1603.05,246.33 1595.02,242.45 1588,254 C1577.48,271.31 1586.8603,293.6735 1587.6003,295.4035 " fill="none" id="Instructor-to-Web Browser" style="stroke:#181818;stroke-width:1.0;"/><polygon fill="#181818" points="1589.96,300.92,1590.0982,291.0721,1587.9936,296.3229,1582.7428,294.2183,1589.96,300.92" style="stroke:#181818;stroke-width:1.0;"/><text fill="#000000" font-family="sans-serif" font-size="13" lengthAdjust="spacing" textLength="141.064" x="1589" y="267.0669">Login/Upload Content</text></g><!--link Admin to Web Browser--><g id="link_Admin_Web Browser"><path d="M1826.21,224.17 C1800.39,240.23 1766.98,258.99 1735,271 C1674.36,293.79 1598.5796,300.2856 1596.0396,300.4956 " fill="none" id="Admin-to-Web Browser" style="stroke:#181818;stroke-width:1.0;"/><polygon fill="#181818" points="1590.06,300.99,1599.359,304.2348,1595.043,300.578,1598.6998,296.262,1590.06,300.99" style="stroke:#181818;stroke-width:1.0;"/><text fill="#000000" font-family="sans-serif" font-size="13" lengthAdjust="spacing" textLength="246.4541" x="1772" y="267.0669">Login/Approve Content/Manage Users</text></g><!--link Web Browser to Application Server--><g id="link_Web Browser_Application Server"><path d="M1589.8012,310.1565 C1589.7968,310.3249 1589.7922,310.4958 1589.7876,310.6692 C1589.7784,311.0161 1589.769,311.3729 1589.7593,311.7396 C1589.7398,312.473 1589.7194,313.2457 1589.6979,314.0562 C1589.5261,320.5401 1589.2903,329.4405 1589.0119,339.9517 C1588.455,360.9741 1587.7275,388.4394 1587,415.9013 C1586.8181,422.7667 1586.6363,429.632 1586.457,436.3963 C1586.4122,438.0874 1586.5265,433.7742 1586.4821,435.4511 " fill="none" id="Web Browser-to-Application Server" style="stroke:#181818;stroke-width:1.0;"/><polygon fill="#181818" points="1586.3232,441.449,1590.5601,432.5581,1586.4556,436.4508,1582.5629,432.3462,1586.3232,441.449" style="stroke:#181818;stroke-width:1.0;"/><text fill="#000000" font-family="sans-serif" font-size="13" lengthAdjust="spacing" textLength="225.8433" x="1590" y="370.9269">HTTPS (Course Search/Enrollment)</text></g><!--link Application Server to AWS Cognito--><g id="link_Application Server_AWS Cognito"><path d="M1573.6209,530.8255 C1573.1362,530.8307 1572.6351,530.836 1572.1178,530.8416 C1571.0832,530.8526 1569.9838,530.8645 1568.8208,530.8772 C1559.5167,530.9785 1546.1384,531.1308 1529.257,531.3408 C1495.4941,531.7606 1447.7185,532.4105 1390.4977,533.3423 C1276.0559,535.2059 1123.8331,538.1969 970.3687,542.7288 C663.44,551.7925 351.545,567.02 327,591.72 C246.6,672.62 280.4317,820.9465 300.6817,886.6065 " fill="none" id="Application Server-to-AWS Cognito" style="stroke:#181818;stroke-width:1.0;"/><polygon fill="#181818" points="302.45,892.34,303.62,882.5609,300.9765,887.5621,295.9753,884.9186,302.45,892.34" style="stroke:#181818;stroke-width:1.0;"/><text fill="#000000" font-family="sans-serif" font-size="13" lengthAdjust="spacing" textLength="150.6172" x="328" y="643.7869">TCP/IP (Authentication)</text></g><!--link Application Server to AWS RDS--><g id="link_Application Server_AWS RDS"><path d="M1573.6512,530.7442 C1571.5647,530.7499 1569.1739,530.7568 1566.4893,530.7651 C1555.751,530.7983 1540.3109,530.854 1520.8286,530.9454 C1481.8638,531.1281 1426.7298,531.4534 1360.7016,532.0261 C1228.645,533.1716 1053.0113,535.3069 876,539.2713 C521.9775,547.2 162.445,562.445 135,591.72 C56.91,675.03 85.4747,821.9805 103.1447,886.9205 " fill="none" id="Application Server-to-AWS RDS" style="stroke:#181818;stroke-width:1.0;"/><polygon fill="#181818" points="104.72,892.71,106.2167,882.9755,103.4072,887.8854,98.4974,885.0759,104.72,892.71" style="stroke:#181818;stroke-width:1.0;"/><text fill="#000000" font-family="sans-serif" font-size="13" lengthAdjust="spacing" textLength="141.2227" x="136" y="643.7869">TCP/IP (Data Storage)</text></g><!--link Application Server to AWS S3 Bucket--><g id="link_Application Server_AWS S3 Bucket"><path d="M1572.6161,531.9043 C1571.6244,532.0075 1570.5705,532.1172 1569.4556,532.2335 C1560.5366,533.1632 1547.7128,534.5065 1531.5322,536.2181 C1499.171,539.6413 1453.3826,544.538 1398.5514,550.5466 C1288.8891,562.5638 1143.0556,579.0288 996.1263,597.05 C702.2675,633.0925 404.025,675.36 382,700.72 C377.05,706.42 378.11,711.24 382,717.72 C385.89,724.2 392.23,719.86 397,725.72 C411.2125,743.18 421.9425,764.0075 430.0433,785.4877 C434.0937,796.2277 437.4868,807.131 440.3292,817.858 C441.7504,823.2216 443.034,828.541 444.1932,833.774 C444.7728,836.3905 445.3214,838.9854 445.8405,841.5534 C446.1,842.8374 446.3522,844.1146 446.5973,845.3845 C446.7198,846.0194 445.729,840.7564 445.848,841.3875 " fill="none" id="Application Server-to-AWS S3 Bucket" style="stroke:#181818;stroke-width:1.0;"/><polygon fill="#181818" points="446.9596,847.2837,449.223,837.6984,446.0333,842.3702,441.3615,839.1805,446.9596,847.2837" style="stroke:#181818;stroke-width:1.0;"/><text fill="#000000" font-family="sans-serif" font-size="13" lengthAdjust="spacing" textLength="197.4946" x="1040" y="643.7869">HTTPS (Content Management)</text></g><!--link Application Server to PaymentService--><g id="link_Application Server_PaymentService"><path d="M1584.09,530.72 C1587.84,530.52 1708.54,524.53 1794,560.72 C1819.89,571.68 1840.4246,587.0525 1858.9546,603.6825 " fill="none" id="Application Server-to-PaymentService" style="stroke:#181818;stroke-width:1.0;"/><polygon fill="#181818" points="1863.42,607.69,1859.3936,598.7018,1859.6988,604.3504,1854.0502,604.6556,1863.42,607.69" style="stroke:#181818;stroke-width:1.0;"/><text fill="#000000" font-family="sans-serif" font-size="13" lengthAdjust="spacing" textLength="187.5859" x="1826" y="573.7869">HTTPS (Payment Processing)</text></g><!--link Application Server to TranscriptionService--><g id="link_Application Server_TranscriptionService"><path d="M1584.04,530.8 C1584.84,532.5 1597.93,559.88 1614,577.72 C1623.59,588.37 1630.5091,594.879 1641.7191,603.819 " fill="none" id="Application Server-to-TranscriptionService" style="stroke:#181818;stroke-width:1.0;"/><polygon fill="#181818" points="1646.41,607.56,1641.8676,598.8212,1642.5009,604.4425,1636.8796,605.0757,1646.41,607.56" style="stroke:#181818;stroke-width:1.0;"/><text fill="#000000" font-family="sans-serif" font-size="13" lengthAdjust="spacing" textLength="174.1353" x="1615" y="573.7869">HTTP (Video Transcription)</text></g><!--link PaymentService to PaymentGateway--><g id="link_PaymentService_PaymentGateway"><path d="M1816.86,666.53 C1810.86,668.1 1804.86,669.53 1799,670.72 C1727.28,685.33 1534.54,664.4 1471,700.72 C1393.96,744.76 1346.6048,837.2014 1325.2948,887.1414 " fill="none" id="PaymentService-to-PaymentGateway" style="stroke:#181818;stroke-width:1.0;"/><polygon fill="#181818" points="1322.94,892.66,1330.1513,885.952,1324.9024,888.0612,1322.7932,882.8122,1322.94,892.66" style="stroke:#181818;stroke-width:1.0;"/><text fill="#000000" font-family="sans-serif" font-size="13" lengthAdjust="spacing" textLength="171.8184" x="1472" y="713.7869">HTTPS (External Payment)</text></g><!--link PaymentService to AWS RDS--><g id="link_PaymentService_AWS RDS"><path d="M1816.95,666.99 C1810.92,668.46 1804.89,669.73 1799,670.72 C1494.73,721.74 718.55,676.35 411,700.72 C329.61,707.17 296.84,680.29 229,725.72 C169.33,765.68 138.3527,842.1372 124.2627,886.8672 " fill="none" id="PaymentService-to-AWS RDS" style="stroke:#181818;stroke-width:1.0;"/><polygon fill="#181818" points="122.46,892.59,128.9792,885.2076,123.9622,887.821,121.3488,882.804,122.46,892.59" style="stroke:#181818;stroke-width:1.0;"/><text fill="#000000" font-family="sans-serif" font-size="13" lengthAdjust="spacing" textLength="186.6338" x="412" y="713.7869">TCP/IP (Store Payment Data)</text></g><!--link PaymentService to EmailSender--><g id="link_PaymentService_EmailSender"><path d="M1816.93,665.65 C1810.89,667.43 1804.86,669.15 1799,670.72 C1738.38,687 1700.39,651.85 1661,700.72 C1616.63,755.77 1636.3181,840.1395 1652.2581,887.0095 " fill="none" id="PaymentService-to-EmailSender" style="stroke:#181818;stroke-width:1.0;"/><polygon fill="#181818" points="1654.19,892.69,1655.0792,882.8814,1652.5801,887.9563,1647.5052,885.4572,1654.19,892.69" style="stroke:#181818;stroke-width:1.0;"/><text fill="#000000" font-family="sans-serif" font-size="13" lengthAdjust="spacing" textLength="242.1885" x="1662" y="713.7869">HTTPS (Payment Confirmation Email)</text></g><!--link ilim-backend to AWS S3 Bucket--><g id="link_ilim-backend_AWS S3 Bucket"><path d="M2005.86,666.77 C2000.22,668.33 1994.55,669.68 1989,670.72 C1741.02,717.25 1099.45,642.27 854,700.72 C836.79,704.82 835.22,713.65 818,717.72 C799.4,722.12 488,712.7 474,725.72 C442.215,755.275 437.115,803.58 440.1325,845.0188 C440.8869,855.3784 442.1486,865.309 443.6275,874.4101 C444.367,878.9607 445.1608,883.3039 445.9726,887.3898 C446.1756,888.4112 446.3797,889.4166 446.5843,890.4051 C446.6866,890.8994 445.5498,885.5188 445.6524,886.0045 " fill="none" id="ilim-backend-to-AWS S3 Bucket" style="stroke:#181818;stroke-width:1.0;"/><polygon fill="#181818" points="446.8916,891.8751,448.9465,882.243,445.8589,886.983,441.119,883.8954,446.8916,891.8751" style="stroke:#181818;stroke-width:1.0;"/><text fill="#000000" font-family="sans-serif" font-size="13" lengthAdjust="spacing" textLength="242.2837" x="855" y="713.7869">HTTP (Store/Approve/Reject Content)</text></g><!--link ilim-backend to EmailSender--><g id="link_ilim-backend_EmailSender"><path d="M2029.95,670.77 C1951.55,725.16 1793.5999,834.71 1715.1099,889.16 " fill="none" id="ilim-backend-to-EmailSender" style="stroke:#181818;stroke-width:1.0;"/><polygon fill="#181818" points="1710.18,892.58,1719.8548,890.7367,1714.2882,889.73,1715.2949,884.1635,1710.18,892.58" style="stroke:#181818;stroke-width:1.0;"/><text fill="#000000" font-family="sans-serif" font-size="13" lengthAdjust="spacing" textLength="192.8228" x="1987" y="713.7869">HTTPS (Course Update Email)</text></g><!--link TranscriptionService to AWS S3 Bucket--><g id="link_TranscriptionService_AWS S3 Bucket"><path d="M1597.8,641.05 C1376.87,643.76 822.31,655.04 643,700.72 C625.85,705.09 624.14,713.33 607,717.72 C592.66,721.39 484.65,715.44 474,725.72 C442.765,755.855 437.675,804.17 440.56,845.4688 C441.2812,855.7934 442.5009,865.6796 443.9352,874.7336 C444.6523,879.2606 445.423,883.5795 446.2119,887.6412 C446.4091,888.6566 446.6075,889.6559 446.8064,890.6384 C446.8561,890.884 445.7038,885.2503 445.7536,885.4938 " fill="none" id="TranscriptionService-to-AWS S3 Bucket" style="stroke:#181818;stroke-width:1.0;"/><polygon fill="#181818" points="446.9557,891.3721,449.0714,881.7532,445.9539,886.4735,441.2336,883.356,446.9557,891.3721" style="stroke:#181818;stroke-width:1.0;"/><text fill="#000000" font-family="sans-serif" font-size="13" lengthAdjust="spacing" textLength="169.9458" x="644" y="713.7869">HTTP (Upload Transcripts)</text></g><!--link EmailSender to EmailGateway--><g id="link_EmailSender_EmailGateway"><path d="M1632.83,892.65 C1586.86,851.31 1499.22,780.93 1409,753.72 C1325.6,728.57 1295.16,724.78 1213,753.72 C1134.82,781.26 1068.1881,846.6873 1031.4981,887.9273 " fill="none" id="EmailSender-to-EmailGateway" style="stroke:#181818;stroke-width:1.0;"/><polygon fill="#181818" points="1027.51,892.41,1036.4807,888.3447,1030.8334,888.6744,1030.5037,883.0272,1027.51,892.41" style="stroke:#181818;stroke-width:1.0;"/><text fill="#000000" font-family="sans-serif" font-size="13" lengthAdjust="spacing" textLength="128.9653" x="1282" y="713.7869">HTTPS (Send Email)</text></g><!--link EmailGateway to EmailSender--><g id="link_EmailGateway_EmailSender"><path d="M1027.51,892.41 C1064.2,851.17 1134.82,781.26 1213,753.72 C1295.16,724.78 1325.6,728.57 1409,753.72 C1499.22,780.93 1582.3986,847.298 1628.3686,888.638 " fill="none" id="EmailGateway-to-EmailSender" style="stroke:#181818;stroke-width:1.0;"/><polygon fill="#181818" points="1632.83,892.65,1628.8126,883.6577,1629.1122,889.3067,1623.4633,889.6062,1632.83,892.65" style="stroke:#181818;stroke-width:1.0;"/><text fill="#000000" font-family="sans-serif" font-size="13" lengthAdjust="spacing" textLength="167.5527" x="1107.5" y="713.7869">SMTP (Send Actual Email)</text></g><!--link Admin to ilim-backend--><g id="link_Admin_ilim-backend"><path d="M1940.03,197.44 C2040.17,204.27 2221.43,220.88 2277,254 C2326.59,283.55 2336.73,303.1 2355,357.86 C2381.84,438.3 2513.45,358.91 2277,577.72 C2240.43,611.57 2191.6321,625.6297 2148.2121,632.2197 " fill="none" id="Admin-to-ilim-backend" style="stroke:#181818;stroke-width:1.0;"/><polygon fill="#181818" points="2142.28,633.12,2151.7783,635.7242,2147.2234,632.3697,2150.5779,627.8148,2142.28,633.12" style="stroke:#181818;stroke-width:1.0;"/><text fill="#000000" font-family="sans-serif" font-size="13" lengthAdjust="spacing" textLength="157.771" x="2363" y="370.9269">Approve/Delete Courses</text></g><!--link Instructor to ilim-backend--><g id="link_Instructor_ilim-backend"><path d="M1747.93,224 C1759.9,230.41 1773.05,236.33 1786,240 C1899.89,272.33 1939.41,217.42 2052,254 C2132.63,280.2 2171.54,283.36 2212,357.86 C2260.42,447.01 2168.828,551.3966 2113.588,603.4166 " fill="none" id="Instructor-to-ilim-backend" style="stroke:#181818;stroke-width:1.0;"/><polygon fill="#181818" points="2109.22,607.53,2118.5143,604.2719,2112.86,604.1021,2113.0298,598.4478,2109.22,607.53" style="stroke:#181818;stroke-width:1.0;"/><text fill="#000000" font-family="sans-serif" font-size="13" lengthAdjust="spacing" textLength="101.3848" x="2219" y="370.9269">Upload Content</text></g><!--link Student to PaymentService--><g id="link_Student_PaymentService"><path d="M1576.88,224.17 C1588.85,230.57 1602.02,236.44 1615,240 C1636.87,245.99 2007.24,237.69 2023,254 C2047.99,279.87 2043.01,547.83 2023,577.72 C2013.91,591.3 2003.9,585.01 1989,591.72 C1977.95,596.69 1971.6817,599.5781 1960.4517,605.0081 " fill="none" id="Student-to-PaymentService" style="stroke:#181818;stroke-width:1.0;"/><polygon fill="#181818" points="1955.05,607.62,1964.8938,607.3033,1959.5514,605.4435,1961.4113,600.1011,1955.05,607.62" style="stroke:#181818;stroke-width:1.0;"/><text fill="#000000" font-family="sans-serif" font-size="13" lengthAdjust="spacing" textLength="164.3535" x="2040" y="370.9269">Enroll in Course/Payment</text></g><!--SRC=[ZLLDRwCm4BtpAqOv9OU8mzwYAbA-j5kfbQAIR0zL3uxnfcx1HiQqMwtwttSCXc22eHmY8i-yUVCyRyW8VIDd1fDDmfdG4F6OJU1V0FW86UF18pl1MicFdAa9tDp4x9rJjbpQ6FCyHRg8CVaPZwbCCodmpt9vERyLkLO5rL9vGrPnoaNVwLVm5GHPpNBr6474bA6GkpJBan-mBkWRqpwY6rcedC562Zt4zw28oAdYcSxxAPdVTkr2l-0nfqHpANp53SEDF0kkvGXgJ3Gv4IGwsTgt8So7RJGkt1fVc8WxccLPOacNglflU4y-KuIsqdz3E8GS2-O9J-UdYfStQ9SIdaGOmTHuaxk_cYb14i-8DCUs6_X9DFiWdoDDswXlJK99joxlmos31b6ngOkfvlCbFBLS-0mBk9DdBi8LnHvpgAOwS6pcJpfcYIHnxO6WTjv0bInJyhrnJNXFX57xY44vydHoIfJhiJ9Wlmw7VGHJQy684KLVmfrGCacCoZE4waki4DlMMS1Ximzlzp1rVJSR0IXzSaasre88nS9cnbARnU8qKie1bHnL2twKhe4Qc7eMzqgQo-JYF0JJRx0A3AQ_SNbBS6AChDtQRKBD63Q4kYwPUG1w93LgiiPTHc1VicFhAorGsZzSfLN_PQXfmzqN_hknFEgv3H_OAwEw7jzPBr0_7pkhnmmNCgk9UEvWY8-rNEkpOlfnQbvOND-8YMcgkp5zvAFxKWEJjAAwm9ji96nxtLLX0RLSMvOmpUnIoNksIZUnkr3SnNKz-9NdWGjR8xGX_m40]--></g></svg>