<svg xmlns="http://www.w3.org/2000/svg" xmlns:xlink="http://www.w3.org/1999/xlink" contentStyleType="text/css" height="614px" preserveAspectRatio="none" style="width:2015px;height:614px;background:#FFFFFF;" version="1.1" viewBox="0 0 2015 614" width="2015px" zoomAndPan="magnify"><defs/><g><!--cluster User Devices--><g id="cluster_User Devices"><polygon fill="none" points="1281,266.5,1291,256.5,1459,256.5,1459,372.5,1449,382.5,1281,382.5,1281,266.5" style="stroke:#181818;stroke-width:1.0;"/><line style="stroke:#181818;stroke-width:1.0;" x1="1449" x2="1459" y1="266.5" y2="256.5"/><line style="stroke:#181818;stroke-width:1.0;" x1="1281" x2="1449" y1="266.5" y2="266.5"/><line style="stroke:#181818;stroke-width:1.0;" x1="1449" x2="1449" y1="266.5" y2="382.5"/><text fill="#000000" font-family="sans-serif" font-size="14" font-weight="bold" lengthAdjust="spacing" textLength="102.1426" x="1314.9287" y="282.4951">User Devices</text></g><!--cluster AWS Cloud--><g id="cluster_AWS Cloud"><polygon fill="none" points="468,154.5,478,144.5,1257,144.5,1257,587.5,1247,597.5,468,597.5,468,154.5" style="stroke:#181818;stroke-width:1.0;"/><line style="stroke:#181818;stroke-width:1.0;" x1="1247" x2="1257" y1="154.5" y2="144.5"/><line style="stroke:#181818;stroke-width:1.0;" x1="468" x2="1247" y1="154.5" y2="154.5"/><line style="stroke:#181818;stroke-width:1.0;" x1="1247" x2="1247" y1="154.5" y2="597.5"/><text fill="#000000" font-family="sans-serif" font-size="14" font-weight="bold" lengthAdjust="spacing" textLength="85.9141" x="815.543" y="170.4951">AWS Cloud</text></g><!--cluster asg--><g id="cluster_asg"><polygon fill="none" points="671,202.5,681,192.5,932,192.5,932,412.5,922,422.5,671,422.5,671,202.5" style="stroke:#181818;stroke-width:1.0;"/><line style="stroke:#181818;stroke-width:1.0;" x1="922" x2="932" y1="202.5" y2="192.5"/><line style="stroke:#181818;stroke-width:1.0;" x1="671" x2="922" y1="202.5" y2="202.5"/><line style="stroke:#181818;stroke-width:1.0;" x1="922" x2="922" y1="202.5" y2="422.5"/><text fill="#000000" font-family="sans-serif" font-size="14" font-weight="bold" lengthAdjust="spacing" textLength="152.2773" x="721.3613" y="218.4951">Auto Scaling Group</text></g><!--cluster ec2--><g id="cluster_ec2"><polygon fill="none" points="703,258.5,713,248.5,900,248.5,900,380.5,890,390.5,703,390.5,703,258.5" style="stroke:#181818;stroke-width:1.0;"/><line style="stroke:#181818;stroke-width:1.0;" x1="890" x2="900" y1="258.5" y2="248.5"/><line style="stroke:#181818;stroke-width:1.0;" x1="703" x2="890" y1="258.5" y2="258.5"/><line style="stroke:#181818;stroke-width:1.0;" x1="890" x2="890" y1="258.5" y2="390.5"/><text fill="#000000" font-family="sans-serif" font-size="14" font-weight="bold" lengthAdjust="spacing" textLength="110.1953" x="742.4023" y="274.4951">EC2 Instances</text></g><!--cluster External Services--><g id="cluster_External Services"><polygon fill="none" points="16,481.5,26,471.5,444,471.5,444,587.5,434,597.5,16,597.5,16,481.5" style="stroke:#181818;stroke-width:1.0;"/><line style="stroke:#181818;stroke-width:1.0;" x1="434" x2="444" y1="481.5" y2="471.5"/><line style="stroke:#181818;stroke-width:1.0;" x1="16" x2="434" y1="481.5" y2="481.5"/><line style="stroke:#181818;stroke-width:1.0;" x1="434" x2="434" y1="481.5" y2="597.5"/><text fill="#000000" font-family="sans-serif" font-size="14" font-weight="bold" lengthAdjust="spacing" textLength="137.3066" x="157.3467" y="497.4951">External Services</text></g><!--entity frontend--><g id="elem_frontend"><rect fill="#F1F1F1" height="46.2969" rx="2.5" ry="2.5" style="stroke:#181818;stroke-width:0.5;" width="130.3438" x="1303" y="320.5"/><rect fill="#F1F1F1" height="10" style="stroke:#181818;stroke-width:0.5;" width="15" x="1413.3438" y="325.5"/><rect fill="#F1F1F1" height="2" style="stroke:#181818;stroke-width:0.5;" width="4" x="1411.3438" y="327.5"/><rect fill="#F1F1F1" height="2" style="stroke:#181818;stroke-width:0.5;" width="4" x="1411.3438" y="331.5"/><text fill="#000000" font-family="sans-serif" font-size="14" lengthAdjust="spacing" textLength="90.3438" x="1318" y="353.4951">ilim-frontend</text></g><!--entity waf--><g id="elem_waf"><polygon fill="#F1F1F1" points="484,330.5,494,320.5,592.2295,320.5,592.2295,356.7969,582.2295,366.7969,484,366.7969,484,330.5" style="stroke:#181818;stroke-width:0.5;"/><line style="stroke:#181818;stroke-width:0.5;" x1="582.2295" x2="592.2295" y1="330.5" y2="320.5"/><line style="stroke:#181818;stroke-width:0.5;" x1="484" x2="582.2295" y1="330.5" y2="330.5"/><line style="stroke:#181818;stroke-width:0.5;" x1="582.2295" x2="582.2295" y1="330.5" y2="366.7969"/><text fill="#000000" font-family="sans-serif" font-size="14" lengthAdjust="spacing" textLength="68.2295" x="499" y="353.4951">AWS WAF</text></g><!--entity alb--><g id="elem_alb"><polygon fill="#F1F1F1" points="483.5,545.5,493.5,535.5,706.0469,535.5,706.0469,571.7969,696.0469,581.7969,483.5,581.7969,483.5,545.5" style="stroke:#181818;stroke-width:0.5;"/><line style="stroke:#181818;stroke-width:0.5;" x1="696.0469" x2="706.0469" y1="545.5" y2="535.5"/><line style="stroke:#181818;stroke-width:0.5;" x1="483.5" x2="696.0469" y1="545.5" y2="545.5"/><line style="stroke:#181818;stroke-width:0.5;" x1="696.0469" x2="696.0469" y1="545.5" y2="581.7969"/><text fill="#000000" font-family="sans-serif" font-size="14" lengthAdjust="spacing" textLength="182.5469" x="498.5" y="568.4951">Application Load Balancer</text></g><!--entity cognito--><g id="elem_cognito"><polygon fill="#F1F1F1" points="1109.5,545.5,1119.5,535.5,1240.3018,535.5,1240.3018,571.7969,1230.3018,581.7969,1109.5,581.7969,1109.5,545.5" style="stroke:#181818;stroke-width:0.5;"/><line style="stroke:#181818;stroke-width:0.5;" x1="1230.3018" x2="1240.3018" y1="545.5" y2="535.5"/><line style="stroke:#181818;stroke-width:0.5;" x1="1109.5" x2="1230.3018" y1="545.5" y2="545.5"/><line style="stroke:#181818;stroke-width:0.5;" x1="1230.3018" x2="1230.3018" y1="545.5" y2="581.7969"/><text fill="#000000" font-family="sans-serif" font-size="14" lengthAdjust="spacing" textLength="90.8018" x="1124.5" y="568.4951">AWS Cognito</text></g><!--entity s3--><g id="elem_s3"><polygon fill="#F1F1F1" points="741.5,545.5,751.5,535.5,836.0508,535.5,836.0508,571.7969,826.0508,581.7969,741.5,581.7969,741.5,545.5" style="stroke:#181818;stroke-width:0.5;"/><line style="stroke:#181818;stroke-width:0.5;" x1="826.0508" x2="836.0508" y1="545.5" y2="535.5"/><line style="stroke:#181818;stroke-width:0.5;" x1="741.5" x2="826.0508" y1="545.5" y2="545.5"/><line style="stroke:#181818;stroke-width:0.5;" x1="826.0508" x2="826.0508" y1="545.5" y2="581.7969"/><text fill="#000000" font-family="sans-serif" font-size="14" lengthAdjust="spacing" textLength="54.5508" x="756.5" y="568.4951">AWS S3</text></g><!--entity rds--><g id="elem_rds"><polygon fill="#F1F1F1" points="872,545.5,882,535.5,1074.2783,535.5,1074.2783,571.7969,1064.2783,581.7969,872,581.7969,872,545.5" style="stroke:#181818;stroke-width:0.5;"/><line style="stroke:#181818;stroke-width:0.5;" x1="1064.2783" x2="1074.2783" y1="545.5" y2="535.5"/><line style="stroke:#181818;stroke-width:0.5;" x1="872" x2="1064.2783" y1="545.5" y2="545.5"/><line style="stroke:#181818;stroke-width:0.5;" x1="1064.2783" x2="1064.2783" y1="545.5" y2="581.7969"/><text fill="#000000" font-family="sans-serif" font-size="14" lengthAdjust="spacing" textLength="162.2783" x="887" y="568.4951">AWS RDS (PostgreSQL)</text></g><!--entity backend--><g id="elem_backend"><rect fill="#F1F1F1" height="46.2969" rx="2.5" ry="2.5" style="stroke:#181818;stroke-width:0.5;" width="130.002" x="746" y="320.5"/><rect fill="#F1F1F1" height="10" style="stroke:#181818;stroke-width:0.5;" width="15" x="856.002" y="325.5"/><rect fill="#F1F1F1" height="2" style="stroke:#181818;stroke-width:0.5;" width="4" x="854.002" y="327.5"/><rect fill="#F1F1F1" height="2" style="stroke:#181818;stroke-width:0.5;" width="4" x="854.002" y="331.5"/><text fill="#000000" font-family="sans-serif" font-size="14" lengthAdjust="spacing" textLength="90.002" x="761" y="353.4951">ilim-backend</text></g><!--entity paymentGateway--><g id="elem_paymentGateway"><rect fill="#F1F1F1" height="46.2969" rx="2.5" ry="2.5" style="stroke:#181818;stroke-width:0.5;" width="225.1104" x="202.5" y="535.5"/><rect fill="#F1F1F1" height="10" style="stroke:#181818;stroke-width:0.5;" width="15" x="407.6104" y="540.5"/><rect fill="#F1F1F1" height="2" style="stroke:#181818;stroke-width:0.5;" width="4" x="405.6104" y="542.5"/><rect fill="#F1F1F1" height="2" style="stroke:#181818;stroke-width:0.5;" width="4" x="405.6104" y="546.5"/><text fill="#000000" font-family="sans-serif" font-size="14" lengthAdjust="spacing" textLength="185.1104" x="217.5" y="568.4951">Payment Gateway (Stripe)</text></g><!--entity emailService--><g id="elem_emailService"><rect fill="#F1F1F1" height="46.2969" rx="2.5" ry="2.5" style="stroke:#181818;stroke-width:0.5;" width="135.0332" x="32.5" y="535.5"/><rect fill="#F1F1F1" height="10" style="stroke:#181818;stroke-width:0.5;" width="15" x="147.5332" y="540.5"/><rect fill="#F1F1F1" height="2" style="stroke:#181818;stroke-width:0.5;" width="4" x="145.5332" y="542.5"/><rect fill="#F1F1F1" height="2" style="stroke:#181818;stroke-width:0.5;" width="4" x="145.5332" y="546.5"/><text fill="#000000" font-family="sans-serif" font-size="14" lengthAdjust="spacing" textLength="95.0332" x="47.5" y="568.4951">Email Service</text></g><!--entity student--><g id="elem_student"><ellipse cx="1271.0557" cy="14" fill="#F1F1F1" rx="8" ry="8" style="stroke:#181818;stroke-width:0.5;"/><path d="M1271.0557,22 L1271.0557,49 M1258.0557,30 L1284.0557,30 M1271.0557,49 L1258.0557,64 M1271.0557,49 L1284.0557,64 " fill="none" style="stroke:#181818;stroke-width:0.5;"/><text fill="#000000" font-family="sans-serif" font-size="14" lengthAdjust="spacing" textLength="55.1113" x="1243.5" y="78.4951">Student</text></g><!--entity instructor--><g id="elem_instructor"><ellipse cx="1367.9609" cy="14" fill="#F1F1F1" rx="8" ry="8" style="stroke:#181818;stroke-width:0.5;"/><path d="M1367.9609,22 L1367.9609,49 M1354.9609,30 L1380.9609,30 M1367.9609,49 L1354.9609,64 M1367.9609,49 L1380.9609,64 " fill="none" style="stroke:#181818;stroke-width:0.5;"/><text fill="#000000" font-family="sans-serif" font-size="14" lengthAdjust="spacing" textLength="67.9219" x="1334" y="78.4951">Instructor</text></g><!--entity admin--><g id="elem_admin"><ellipse cx="1459.9321" cy="14" fill="#F1F1F1" rx="8" ry="8" style="stroke:#181818;stroke-width:0.5;"/><path d="M1459.9321,22 L1459.9321,49 M1446.9321,30 L1472.9321,30 M1459.9321,49 L1446.9321,64 M1459.9321,49 L1472.9321,64 " fill="none" style="stroke:#181818;stroke-width:0.5;"/><text fill="#000000" font-family="sans-serif" font-size="14" lengthAdjust="spacing" textLength="44.8643" x="1437.5" y="78.4951">Admin</text></g><g id="elem_GMN33"><path d="M1764,331 L1764,356.1328 L2008.0376,356.1328 L2008.0376,341 L1998.0376,331 L1764,331 " fill="#FEFFDD" style="stroke:#181818;stroke-width:0.5;"/><path d="M1998.0376,331 L1998.0376,341 L2008.0376,341 L1998.0376,331 " fill="#FEFFDD" style="stroke:#181818;stroke-width:1.0;"/><text fill="#000000" font-family="sans-serif" font-size="13" lengthAdjust="spacing" textLength="223.0376" x="1770" y="348.0669">ilim-frontend runs on user devices</text></g><g id="elem_GMN36"><path d="M1475.5,331 L1475.5,356.1328 L1728.7988,356.1328 L1728.7988,341 L1718.7988,331 L1475.5,331 " fill="#FEFFDD" style="stroke:#181818;stroke-width:0.5;"/><path d="M1718.7988,331 L1718.7988,341 L1728.7988,341 L1718.7988,331 " fill="#FEFFDD" style="stroke:#181818;stroke-width:1.0;"/><text fill="#000000" font-family="sans-serif" font-size="13" lengthAdjust="spacing" textLength="232.2988" x="1481.5" y="348.0669">ilim-backend runs on EC2 instances</text></g><!--link student to frontend--><g id="link_student_frontend"><path d="M1283.09,81.64 C1303.51,144.36 1342.3538,263.6944 1358.8938,314.5344 " fill="none" id="student-to-frontend" style="stroke:#181818;stroke-width:1.0;"/><polygon fill="#181818" points="1360.75,320.24,1361.7694,310.444,1359.2031,315.4853,1354.1619,312.919,1360.75,320.24" style="stroke:#181818;stroke-width:1.0;"/></g><!--link instructor to frontend--><g id="link_instructor_frontend"><path d="M1368,81.64 C1368,144.36 1368,263.4 1368,314.24 " fill="none" id="instructor-to-frontend" style="stroke:#181818;stroke-width:1.0;"/><polygon fill="#181818" points="1368,320.24,1372,311.24,1368,315.24,1364,311.24,1368,320.24" style="stroke:#181818;stroke-width:1.0;"/></g><!--link admin to frontend--><g id="link_admin_frontend"><path d="M1448.53,81.64 C1429.17,144.36 1392.3404,263.6671 1376.6404,314.5071 " fill="none" id="admin-to-frontend" style="stroke:#181818;stroke-width:1.0;"/><polygon fill="#181818" points="1374.87,320.24,1381.3475,312.821,1376.3453,315.4626,1373.7037,310.4604,1374.87,320.24" style="stroke:#181818;stroke-width:1.0;"/></g><!--link frontend to alb--><g id="link_frontend_alb"><path d="M1346.01,366.75 C1317.69,393.69 1265.57,437.66 1211,455.5 C1159.56,472.31 775.32,446.32 724,463.5 C680.91,477.93 644.3964,508.2825 620.6264,531.2325 " fill="none" id="frontend-to-alb" style="stroke:#181818;stroke-width:1.0;"/><polygon fill="#181818" points="616.31,535.4,625.563,532.0263,619.907,531.9271,620.0063,526.2711,616.31,535.4" style="stroke:#181818;stroke-width:1.0;"/><text fill="#000000" font-family="sans-serif" font-size="13" lengthAdjust="spacing" textLength="79.625" x="1250" y="451.5669">HTTP/HTTPS</text></g><!--link alb to waf--><g id="link_alb_waf"><path d="M588.22,535.35 C574.94,516 552.54,486.27 543,455.5 C533.75,425.66 540.6434,395.4172 543.0334,372.6572 " fill="none" id="alb-to-waf" style="stroke:#181818;stroke-width:1.0;"/><polygon fill="#181818" points="543.66,366.69,538.742,375.223,543.1378,371.6627,546.6982,376.0585,543.66,366.69" style="stroke:#181818;stroke-width:1.0;"/></g><!--link waf to alb--><g id="link_waf_alb"><path d="M517.36,366.69 C506.27,389.45 498.75,425.66 508,455.5 C517.54,486.27 535.5949,511.8623 555.9149,531.2123 " fill="none" id="waf-to-alb" style="stroke:#181818;stroke-width:1.0;"/><polygon fill="#181818" points="560.26,535.35,556.5008,526.2468,556.6391,531.9019,550.9839,532.0402,560.26,535.35" style="stroke:#181818;stroke-width:1.0;"/></g><!--link alb to ec2--><g id="link_alb_ec2"><path d="M568.17,535.05 C540.48,509.27 504.87,466.9 532,438.5 C545.45,424.43 693.23,444.26 707,430.5 C713.555,423.95 717.1694,415.5281 718.8831,406.5253 C719.74,402.0239 720.1217,397.3773 720.1583,392.7468 C720.1629,392.1679 720.162,391.5894 720.1561,391.0114 C720.1546,390.8669 720.2412,396.7218 720.2391,396.5774 " fill="none" id="alb-to-ec2" style="stroke:#181818;stroke-width:1.0;"/><polygon fill="#181818" points="720.1506,390.578,716.2837,399.636,720.2243,395.5775,724.2829,399.5181,720.1506,390.578" style="stroke:#181818;stroke-width:1.0;"/></g><!--link backend to cognito--><g id="link_backend_cognito"><path d="M876.27,358.97 C937.95,375.45 1030.04,407.62 1092,463.5 C1116.9,485.95 1138.1287,510.7273 1154.0787,530.6373 " fill="none" id="backend-to-cognito" style="stroke:#181818;stroke-width:1.0;"/><polygon fill="#181818" points="1157.83,535.32,1155.3248,525.7951,1154.7039,531.4178,1149.0812,530.7969,1157.83,535.32" style="stroke:#181818;stroke-width:1.0;"/><text fill="#000000" font-family="sans-serif" font-size="13" lengthAdjust="spacing" textLength="122.1099" x="1080" y="451.5669">Authenticates with</text></g><!--link backend to s3--><g id="link_backend_s3"><path d="M797.91,366.6 C785.58,385.75 765.53,413.07 742,430.5 C734.31,436.2 727.37,430.57 722,438.5 C717.76,444.76 719.84,448.26 722,455.5 C731.11,485.95 748.7001,511.1197 764.9001,530.5697 " fill="none" id="backend-to-s3" style="stroke:#181818;stroke-width:1.0;"/><polygon fill="#181818" points="768.74,535.18,766.0536,525.7046,765.54,531.3381,759.9066,530.8245,768.74,535.18" style="stroke:#181818;stroke-width:1.0;"/><text fill="#000000" font-family="sans-serif" font-size="13" lengthAdjust="spacing" textLength="172.7197" x="723" y="451.5669">Stores/Retrieves files from</text></g><!--link backend to rds--><g id="link_backend_rds"><path d="M834.73,366.85 C853.54,385.18 879.9,412.28 900,438.5 C924.33,470.24 944.7476,505.2377 958.2276,529.8477 " fill="none" id="backend-to-rds" style="stroke:#181818;stroke-width:1.0;"/><polygon fill="#181818" points="961.11,535.11,960.2946,525.295,958.708,530.7248,953.2782,529.1381,961.11,535.11" style="stroke:#181818;stroke-width:1.0;"/><text fill="#000000" font-family="sans-serif" font-size="13" lengthAdjust="spacing" textLength="136.6777" x="912" y="451.5669">Reads/Writes data to</text></g><!--link backend to paymentGateway--><g id="link_backend_paymentGateway"><path d="M800.34,366.8 C789.07,387.53 769.15,417.17 742,430.5 C720.45,441.08 326.82,421.37 310,438.5 C285.23,463.73 293.7339,502.7096 303.4739,529.5596 " fill="none" id="backend-to-paymentGateway" style="stroke:#181818;stroke-width:1.0;"/><polygon fill="#181818" points="305.52,535.2,306.2111,525.3754,303.8149,530.4997,298.6907,528.1035,305.52,535.2" style="stroke:#181818;stroke-width:1.0;"/><text fill="#000000" font-family="sans-serif" font-size="13" lengthAdjust="spacing" textLength="156.8188" x="311" y="451.5669">Processes payments via</text></g><!--link backend to emailService--><g id="link_backend_emailService"><path d="M800.35,366.82 C789.09,387.58 769.17,417.22 742,430.5 C713.99,444.18 208.45,423.73 181,438.5 C142.71,459.11 121.259,501.1014 110.029,529.4614 " fill="none" id="backend-to-emailService" style="stroke:#181818;stroke-width:1.0;"/><polygon fill="#181818" points="107.82,535.04,114.8525,528.1448,109.6608,530.3912,107.4145,525.1995,107.82,535.04" style="stroke:#181818;stroke-width:1.0;"/><text fill="#000000" font-family="sans-serif" font-size="13" lengthAdjust="spacing" textLength="109.6748" x="182" y="451.5669">Sends emails via</text></g><!--link backend to waf--><g id="link_backend_waf"><path d="M809.72,320.33 C806.18,281.23 792.76,203.05 742,168.5 C662.34,114.28 581.1433,256.0334 551.6833,314.9534 " fill="none" id="backend-to-waf" style="stroke:#181818;stroke-width:1.0;"/><polygon fill="#181818" points="549,320.32,556.6026,314.059,551.2361,315.8479,549.4472,310.4813,549,320.32" style="stroke:#181818;stroke-width:1.0;"/><text fill="#000000" font-family="sans-serif" font-size="13" lengthAdjust="spacing" textLength="82.8052" x="628" y="124.5669">Protected by</text></g><!--link backend to alb--><g id="link_backend_alb"><path d="M800.23,366.58 C788.88,387.16 768.9,416.68 742,430.5 C727.45,437.97 606.25,426.62 595,438.5 C570.71,464.15 577.1288,502.8882 585.2288,529.5982 " fill="none" id="backend-to-alb" style="stroke:#181818;stroke-width:1.0;"/><polygon fill="#181818" points="586.97,535.34,588.186,525.5665,585.519,530.5552,580.5303,527.8881,586.97,535.34" style="stroke:#181818;stroke-width:1.0;"/><text fill="#000000" font-family="sans-serif" font-size="13" lengthAdjust="spacing" textLength="115.7241" x="596" y="451.5669">Load Balanced by</text></g><!--link frontend to GMN33--><g id="link_frontend_GMN33"><path d="M1370,320.18 C1375.75,269.8 1397.37,151.89 1475.5,109 C1524.78,81.95 1678.88,82.56 1728.5,109 C1821.33,158.48 1869.17,289.67 1882.24,330.91 " fill="none" id="frontend-GMN33" style="stroke:#181818;stroke-width:1.0;stroke-dasharray:7.0,7.0;"/></g><!--link ec2 to GMN36--><g id="link_ec2_GMN36"><path d="M711.2564,248.1234 C711.2947,247.2953 711.3341,246.4657 711.3748,245.6347 C711.4561,243.9727 711.5423,242.3051 711.6335,240.6333 C711.816,237.2896 712.0188,233.9291 712.2438,230.5625 C715.8425,176.6975 725.105,121.295 747.5,109 C814.12,72.43 1363.78,74.51 1431.5,109 C1527.71,158 1582.39,289.52 1597.6,330.87 " fill="none" id="ec2-GMN36" style="stroke:#181818;stroke-width:1.0;stroke-dasharray:7.0,7.0;"/></g><!--SRC=[NLHDRzim3BthLn2vj3qK0PBR3WFIDkq654CMTyXXs46nc4IeBHcId2uO-jz7IlvI0iIWoKTIv7lo3HJlsa0ZdQmneFDmi0xs6CY6i_Qjh40s3LBSb2WyWICMIbitrg09HRXK26rTBIPHOnLE0k86VdagBcGPgFoi2AsYr1b83pxPVUYxyS6rRCUe7bvxm4hLsiIOP8jh_w1kNd1Fc74VUCApBj7Fu9y0-ltMbQxl3ywQW4RzuTp-HNoABd6rA-2nigtgiqRtRlKS6tx8mpJID9KkPT3MmAkL2XvanKjA1vVLVefjWuMYb9KsHtXnjcqIo1-xPYDq_RW0NWANyX65vMA26WVQo_AzdwUp1zId69-J-UpHw61ZrJBPLuXYcKXPNlctJmNSRgmFHuV5pzUxY7BAZ_jR_oN9699BWIxV_aPUQc8ONcJ03tc1so8utU1TF7YJWbqi9QnhgOSw4ONiwHpSCkc9r44zIHT4WHUTaE3-_kj8xwYVt1-raxkew7Dd0x4rw47qY0WdNk4BV7jxsypvKGXsS835GVyUDFY9FIxza0ZAZzon5d4T7rISn7AYGLXRIABJuPG1_P8m1Ks4Vhv5MYMU2NRG5KPPrncOA2Bq5gNoyvtJN53986d039QpG1aRPub2ZmD1dhu6CikPSi8d8dz7LCBIq2kbD4zAgeZYwfIHbU6TnNu1ou0AzfSidFOzlLyH4cyzJyEVgxAIDDg5X1WGd3wU0jZ3I2n0Tl_1jSO3NTgM9QJIfq9mWFF5LHMcholG7wlFvvkg-viw5FWF]--></g></svg>