<svg xmlns="http://www.w3.org/2000/svg" contentStyleType="text/css" height="794px" preserveAspectRatio="none"
     style="width:1782px;height:794px;background:#FFFFFF;" version="1.1" viewBox="0 0 1782 794" width="1782px"
     zoomAndPan="magnify"><defs/><g><!--cluster Frontend_Layer--><g id="cluster_Frontend_Layer"><rect fill="none" height="243" rx="2.5" ry="2.5" style="stroke:#181818;stroke-width:1.0;" width="391" x="7" y="7"/><text fill="#000000" font-family="sans-serif" font-size="14" font-weight="bold" lengthAdjust="spacing" textLength="123.1221" x="140.939" y="21.9951">Frontend_Layer</text></g><!--cluster Infrastructure_Layer--><g id="cluster_Infrastructure_Layer"><rect fill="none" height="361" rx="2.5" ry="2.5" style="stroke:#181818;stroke-width:1.0;" width="408" x="359" y="303"/><text fill="#000000" font-family="sans-serif" font-size="14" font-weight="bold" lengthAdjust="spacing" textLength="161.7656" x="482.1172" y="317.9951">Infrastructure_Layer</text></g><!--cluster Backend_Layer--><g id="cluster_Backend_Layer"><rect fill="none" height="243" rx="2.5" ry="2.5" style="stroke:#181818;stroke-width:1.0;" width="408" x="964" y="7"/><text fill="#000000" font-family="sans-serif" font-size="14" font-weight="bold" lengthAdjust="spacing" textLength="118.1045" x="1108.9478" y="21.9951">Backend_Layer</text></g><!--cluster Data_Layer--><g id="cluster_Data_Layer"><rect fill="none" height="97" rx="2.5" ry="2.5" style="stroke:#181818;stroke-width:1.0;" width="364" x="422" y="7"/><text fill="#000000" font-family="sans-serif" font-size="14" font-weight="bold" lengthAdjust="spacing" textLength="88.1016" x="559.9492" y="21.9951">Data_Layer</text></g><!--cluster External_Services--><g id="cluster_External_Services"><rect fill="none" height="97" rx="2.5" ry="2.5" style="stroke:#181818;stroke-width:1.0;" width="379" x="1397" y="153"/><text fill="#000000" font-family="sans-serif" font-size="14" font-weight="bold" lengthAdjust="spacing" textLength="139.4326" x="1516.7837" y="167.9951">External_Services</text></g><!--entity Student--><g id="elem_Student"><rect fill="#F1F1F1" height="46.2969" rx="2.5" ry="2.5" style="stroke:#181818;stroke-width:0.5;" width="95.1113" x="166.5" y="42"/><rect fill="#F1F1F1" height="10" style="stroke:#181818;stroke-width:0.5;" width="15" x="241.6113" y="47"/><rect fill="#F1F1F1" height="2" style="stroke:#181818;stroke-width:0.5;" width="4" x="239.6113" y="49"/><rect fill="#F1F1F1" height="2" style="stroke:#181818;stroke-width:0.5;" width="4" x="239.6113" y="53"/><text fill="#000000" font-family="sans-serif" font-size="14" lengthAdjust="spacing" textLength="55.1113" x="181.5" y="74.9951">Student</text></g><!--entity Instructor--><g id="elem_Instructor"><rect fill="#F1F1F1" height="46.2969" rx="2.5" ry="2.5" style="stroke:#181818;stroke-width:0.5;" width="107.9219" x="23" y="42"/><rect fill="#F1F1F1" height="10" style="stroke:#181818;stroke-width:0.5;" width="15" x="110.9219" y="47"/><rect fill="#F1F1F1" height="2" style="stroke:#181818;stroke-width:0.5;" width="4" x="108.9219" y="49"/><rect fill="#F1F1F1" height="2" style="stroke:#181818;stroke-width:0.5;" width="4" x="108.9219" y="53"/><text fill="#000000" font-family="sans-serif" font-size="14" lengthAdjust="spacing" textLength="67.9219" x="38" y="74.9951">Instructor</text></g><!--entity Admin--><g id="elem_Admin"><rect fill="#F1F1F1" height="46.2969" rx="2.5" ry="2.5" style="stroke:#181818;stroke-width:0.5;" width="84.8643" x="296.5" y="42"/><rect fill="#F1F1F1" height="10" style="stroke:#181818;stroke-width:0.5;" width="15" x="361.3643" y="47"/><rect fill="#F1F1F1" height="2" style="stroke:#181818;stroke-width:0.5;" width="4" x="359.3643" y="49"/><rect fill="#F1F1F1" height="2" style="stroke:#181818;stroke-width:0.5;" width="4" x="359.3643" y="53"/><text fill="#000000" font-family="sans-serif" font-size="14" lengthAdjust="spacing" textLength="44.8643" x="311.5" y="74.9951">Admin</text></g><!--entity Frontend--><g id="elem_Frontend"><rect fill="#F1F1F1" height="46.2969" rx="2.5" ry="2.5" style="stroke:#181818;stroke-width:0.5;" width="103.1094" x="278.5" y="188"/><rect fill="#F1F1F1" height="10" style="stroke:#181818;stroke-width:0.5;" width="15" x="361.6094" y="193"/><rect fill="#F1F1F1" height="2" style="stroke:#181818;stroke-width:0.5;" width="4" x="359.6094" y="195"/><rect fill="#F1F1F1" height="2" style="stroke:#181818;stroke-width:0.5;" width="4" x="359.6094" y="199"/><text fill="#000000" font-family="sans-serif" font-size="14" lengthAdjust="spacing" textLength="63.1094" x="293.5" y="220.9951">Frontend</text></g><!--entity ALB--><g id="elem_ALB"><rect fill="#F1F1F1" height="46.2969" rx="2.5" ry="2.5" style="stroke:#181818;stroke-width:0.5;" width="66.9814" x="375.5" y="338"/><rect fill="#F1F1F1" height="10" style="stroke:#181818;stroke-width:0.5;" width="15" x="422.4814" y="343"/><rect fill="#F1F1F1" height="2" style="stroke:#181818;stroke-width:0.5;" width="4" x="420.4814" y="345"/><rect fill="#F1F1F1" height="2" style="stroke:#181818;stroke-width:0.5;" width="4" x="420.4814" y="349"/><text fill="#000000" font-family="sans-serif" font-size="14" lengthAdjust="spacing" textLength="26.9814" x="390.5" y="370.9951">ALB</text></g><!--entity WAF--><g id="elem_WAF"><rect fill="#F1F1F1" height="46.2969" rx="2.5" ry="2.5" style="stroke:#181818;stroke-width:0.5;" width="108.2295" x="442" y="473"/><rect fill="#F1F1F1" height="10" style="stroke:#181818;stroke-width:0.5;" width="15" x="530.2295" y="478"/><rect fill="#F1F1F1" height="2" style="stroke:#181818;stroke-width:0.5;" width="4" x="528.2295" y="480"/><rect fill="#F1F1F1" height="2" style="stroke:#181818;stroke-width:0.5;" width="4" x="528.2295" y="484"/><text fill="#000000" font-family="sans-serif" font-size="14" lengthAdjust="spacing" textLength="68.2295" x="457" y="505.9951">AWS WAF</text></g><!--entity EC2--><g id="elem_EC2"><rect fill="#F1F1F1" height="46.2969" rx="2.5" ry="2.5" style="stroke:#181818;stroke-width:0.5;" width="138.8203" x="434.5" y="602"/><rect fill="#F1F1F1" height="10" style="stroke:#181818;stroke-width:0.5;" width="15" x="553.3203" y="607"/><rect fill="#F1F1F1" height="2" style="stroke:#181818;stroke-width:0.5;" width="4" x="551.3203" y="609"/><rect fill="#F1F1F1" height="2" style="stroke:#181818;stroke-width:0.5;" width="4" x="551.3203" y="613"/><text fill="#000000" font-family="sans-serif" font-size="14" lengthAdjust="spacing" textLength="98.8203" x="449.5" y="634.9951">EC2 Instances</text></g><!--entity ASG--><g id="elem_ASG"><rect fill="#F1F1F1" height="46.2969" rx="2.5" ry="2.5" style="stroke:#181818;stroke-width:0.5;" width="106.0693" x="478" y="338"/><rect fill="#F1F1F1" height="10" style="stroke:#181818;stroke-width:0.5;" width="15" x="564.0693" y="343"/><rect fill="#F1F1F1" height="2" style="stroke:#181818;stroke-width:0.5;" width="4" x="562.0693" y="345"/><rect fill="#F1F1F1" height="2" style="stroke:#181818;stroke-width:0.5;" width="4" x="562.0693" y="349"/><text fill="#000000" font-family="sans-serif" font-size="14" lengthAdjust="spacing" textLength="66.0693" x="493" y="370.9951">AWS ASG</text></g><!--entity Cognito--><g id="elem_Cognito"><rect fill="#F1F1F1" height="46.2969" rx="2.5" ry="2.5" style="stroke:#181818;stroke-width:0.5;" width="130.8018" x="619.5" y="338"/><rect fill="#F1F1F1" height="10" style="stroke:#181818;stroke-width:0.5;" width="15" x="730.3018" y="343"/><rect fill="#F1F1F1" height="2" style="stroke:#181818;stroke-width:0.5;" width="4" x="728.3018" y="345"/><rect fill="#F1F1F1" height="2" style="stroke:#181818;stroke-width:0.5;" width="4" x="728.3018" y="349"/><text fill="#000000" font-family="sans-serif" font-size="14" lengthAdjust="spacing" textLength="90.8018" x="634.5" y="370.9951">AWS Cognito</text></g><!--entity Backend--><g id="elem_Backend"><rect fill="#F1F1F1" height="46.2969" rx="2.5" ry="2.5" style="stroke:#181818;stroke-width:0.5;" width="130.002" x="980" y="42"/><rect fill="#F1F1F1" height="10" style="stroke:#181818;stroke-width:0.5;" width="15" x="1090.002" y="47"/><rect fill="#F1F1F1" height="2" style="stroke:#181818;stroke-width:0.5;" width="4" x="1088.002" y="49"/><rect fill="#F1F1F1" height="2" style="stroke:#181818;stroke-width:0.5;" width="4" x="1088.002" y="53"/><text fill="#000000" font-family="sans-serif" font-size="14" lengthAdjust="spacing" textLength="90.002" x="995" y="74.9951">ilim-backend</text></g><!--entity PaymentService--><g id="elem_PaymentService"><rect fill="#F1F1F1" height="46.2969" rx="2.5" ry="2.5" style="stroke:#181818;stroke-width:0.5;" width="153.6611" x="980" y="188"/><rect fill="#F1F1F1" height="10" style="stroke:#181818;stroke-width:0.5;" width="15" x="1113.6611" y="193"/><rect fill="#F1F1F1" height="2" style="stroke:#181818;stroke-width:0.5;" width="4" x="1111.6611" y="195"/><rect fill="#F1F1F1" height="2" style="stroke:#181818;stroke-width:0.5;" width="4" x="1111.6611" y="199"/><text fill="#000000" font-family="sans-serif" font-size="14" lengthAdjust="spacing" textLength="113.6611" x="995" y="220.9951">PaymentService</text></g><!--entity EmailService--><g id="elem_EmailService"><rect fill="#F1F1F1" height="46.2969" rx="2.5" ry="2.5" style="stroke:#181818;stroke-width:0.5;" width="187.4922" x="1169.5" y="188"/><rect fill="#F1F1F1" height="10" style="stroke:#181818;stroke-width:0.5;" width="15" x="1336.9922" y="193"/><rect fill="#F1F1F1" height="2" style="stroke:#181818;stroke-width:0.5;" width="4" x="1334.9922" y="195"/><rect fill="#F1F1F1" height="2" style="stroke:#181818;stroke-width:0.5;" width="4" x="1334.9922" y="199"/><text fill="#000000" font-family="sans-serif" font-size="14" lengthAdjust="spacing" textLength="147.4922" x="1184.5" y="220.9951">EmailSendingService</text></g><!--entity Database--><g id="elem_Database"><rect fill="#F1F1F1" height="46.2969" rx="2.5" ry="2.5" style="stroke:#181818;stroke-width:0.5;" width="200.5215" x="568.5" y="42"/><rect fill="#F1F1F1" height="10" style="stroke:#181818;stroke-width:0.5;" width="15" x="749.0215" y="47"/><rect fill="#F1F1F1" height="2" style="stroke:#181818;stroke-width:0.5;" width="4" x="747.0215" y="49"/><rect fill="#F1F1F1" height="2" style="stroke:#181818;stroke-width:0.5;" width="4" x="747.0215" y="53"/><text fill="#000000" font-family="sans-serif" font-size="14" lengthAdjust="spacing" textLength="160.5215" x="583.5" y="74.9951">PostgreSQL / AWS RDS</text></g><!--entity Storage--><g id="elem_Storage"><rect fill="#F1F1F1" height="46.2969" rx="2.5" ry="2.5" style="stroke:#181818;stroke-width:0.5;" width="94.5508" x="438.5" y="42"/><rect fill="#F1F1F1" height="10" style="stroke:#181818;stroke-width:0.5;" width="15" x="513.0508" y="47"/><rect fill="#F1F1F1" height="2" style="stroke:#181818;stroke-width:0.5;" width="4" x="511.0508" y="49"/><rect fill="#F1F1F1" height="2" style="stroke:#181818;stroke-width:0.5;" width="4" x="511.0508" y="53"/><text fill="#000000" font-family="sans-serif" font-size="14" lengthAdjust="spacing" textLength="54.5508" x="453.5" y="74.9951">AWS S3</text></g><!--entity PaymentGateway--><g id="elem_PaymentGateway"><rect fill="#F1F1F1" height="46.2969" rx="2.5" ry="2.5" style="stroke:#181818;stroke-width:0.5;" width="175.5088" x="1413" y="188"/><rect fill="#F1F1F1" height="10" style="stroke:#181818;stroke-width:0.5;" width="15" x="1568.5088" y="193"/><rect fill="#F1F1F1" height="2" style="stroke:#181818;stroke-width:0.5;" width="4" x="1566.5088" y="195"/><rect fill="#F1F1F1" height="2" style="stroke:#181818;stroke-width:0.5;" width="4" x="1566.5088" y="199"/><text fill="#000000" font-family="sans-serif" font-size="14" lengthAdjust="spacing" textLength="135.5088" x="1428" y="220.9951">Payment Gateways</text></g><!--entity ExternalEmailService--><g id="elem_ExternalEmailService"><rect fill="#F1F1F1" height="46.2969" rx="2.5" ry="2.5" style="stroke:#181818;stroke-width:0.5;" width="135.0332" x="1624.5" y="188"/><rect fill="#F1F1F1" height="10" style="stroke:#181818;stroke-width:0.5;" width="15" x="1739.5332" y="193"/><rect fill="#F1F1F1" height="2" style="stroke:#181818;stroke-width:0.5;" width="4" x="1737.5332" y="195"/><rect fill="#F1F1F1" height="2" style="stroke:#181818;stroke-width:0.5;" width="4" x="1737.5332" y="199"/><text fill="#000000" font-family="sans-serif" font-size="14" lengthAdjust="spacing" textLength="95.0332" x="1639.5" y="220.9951">Email Service</text></g><!--entity http_service--><g id="elem_http_service"><ellipse cx="843" cy="496" fill="#F1F1F1" rx="8" ry="8" style="stroke:#181818;stroke-width:0.5;"/><text fill="#000000" font-family="sans-serif" font-size="14" lengthAdjust="spacing" textLength="105.9434" x="790.0283" y="525.9951">I_HTTP_Service</text></g><!--entity auth--><g id="elem_auth"><ellipse cx="1009" cy="496" fill="#F1F1F1" rx="8" ry="8" style="stroke:#181818;stroke-width:0.5;"/><text fill="#000000" font-family="sans-serif" font-size="14" lengthAdjust="spacing" textLength="113.9004" x="952.0498" y="525.9951">I_Authentication</text></g><!--entity backend_service--><g id="elem_backend_service"><ellipse cx="410" cy="756" fill="#F1F1F1" rx="8" ry="8" style="stroke:#181818;stroke-width:0.5;"/><text fill="#000000" font-family="sans-serif" font-size="14" lengthAdjust="spacing" textLength="130.2314" x="344.8843" y="785.9951">I_Backend_Service</text></g><!--entity db_interface--><g id="elem_db_interface"><ellipse cx="603" cy="211" fill="#F1F1F1" rx="8" ry="8" style="stroke:#181818;stroke-width:0.5;"/><text fill="#000000" font-family="sans-serif" font-size="14" lengthAdjust="spacing" textLength="98.875" x="553.5625" y="240.9951">I_Backend_DB</text></g><!--entity storage_interface--><g id="elem_storage_interface"><ellipse cx="471" cy="211" fill="#F1F1F1" rx="8" ry="8" style="stroke:#181818;stroke-width:0.5;"/><text fill="#000000" font-family="sans-serif" font-size="14" lengthAdjust="spacing" textLength="65.9053" x="438.0474" y="240.9951">I_Storage</text></g><!--entity payment_gateway_interface--><g id="elem_payment_gateway_interface"><ellipse cx="1503" cy="361" fill="#F1F1F1" rx="8" ry="8" style="stroke:#181818;stroke-width:0.5;"/><text fill="#000000" font-family="sans-serif" font-size="14" lengthAdjust="spacing" textLength="141.8936" x="1432.0532" y="390.9951">I_Payment_Gateway</text></g><!--entity email_service_interface--><g id="elem_email_service_interface"><ellipse cx="1682" cy="361" fill="#F1F1F1" rx="8" ry="8" style="stroke:#181818;stroke-width:0.5;"/><text fill="#000000" font-family="sans-serif" font-size="14" lengthAdjust="spacing" textLength="108.7119" x="1627.644" y="390.9951">I_Email_Service</text></g><!--link Student to Frontend--><g id="link_Student_Frontend"><path d="M231.87,88.18 C253.61,115.17 286.3261,155.7774 308.1561,182.8774 " fill="none" id="Student-to-Frontend" style="stroke:#181818;stroke-width:1.0;"/><polygon fill="#181818" points="311.92,187.55,309.3892,178.0319,308.7834,183.6562,303.1591,183.0504,311.92,187.55" style="stroke:#181818;stroke-width:1.0;"/><text fill="#000000" font-family="sans-serif" font-size="13" lengthAdjust="spacing" textLength="31.0591" x="269" y="133.0669">Uses</text></g><!--link Instructor to Frontend--><g id="link_Instructor_Frontend"><path d="M110.39,88.04 C122.44,95.8 136.22,104.47 149,112 C195.49,139.39 244.7926,165.7805 281.7726,185.1105 " fill="none" id="Instructor-to-Frontend" style="stroke:#181818;stroke-width:1.0;"/><polygon fill="#181818" points="287.09,187.89,280.9669,180.1759,282.6589,185.5738,277.2609,187.2657,287.09,187.89" style="stroke:#181818;stroke-width:1.0;"/><text fill="#000000" font-family="sans-serif" font-size="13" lengthAdjust="spacing" textLength="31.0591" x="189" y="133.0669">Uses</text></g><!--link Admin to Frontend--><g id="link_Admin_Frontend"><path d="M337.61,88.18 C335.93,115.17 333.4756,154.4618 331.7756,181.5618 " fill="none" id="Admin-to-Frontend" style="stroke:#181818;stroke-width:1.0;"/><polygon fill="#181818" points="331.4,187.55,335.9556,178.8181,331.713,182.5598,327.9713,178.3172,331.4,187.55" style="stroke:#181818;stroke-width:1.0;"/><text fill="#000000" font-family="sans-serif" font-size="13" lengthAdjust="spacing" textLength="31.0591" x="336" y="133.0669">Uses</text></g><!--link ALB to http_service--><g id="link_ALB_http_service"><path d="M442.55,381.62 C448.57,384.69 454.88,387.63 461,390 C591.74,440.74 633.01,425.59 767,467 C791.45,474.56 813.9832,483.2815 828.1832,488.9915 " fill="none" id="ALB-to-http_service" style="stroke:#181818;stroke-width:1.0;"/><polygon fill="#181818" points="833.75,491.23,826.8921,484.1611,829.111,489.3646,823.9075,491.5835,833.75,491.23" style="stroke:#181818;stroke-width:1.0;"/><text fill="#000000" font-family="sans-serif" font-size="13" lengthAdjust="spacing" textLength="53.5615" x="640" y="433.0669">requires</text></g><!--link EC2 to backend_service--><g id="link_EC2_backend_service"><path d="M487.84,648.18 C466.53,677.42 433.6035,722.6108 419.4235,742.0708 " fill="none" id="EC2-to-backend_service" style="stroke:#181818;stroke-width:1.0;"/><polygon fill="#181818" points="415.89,746.92,424.423,742.0019,418.8346,742.879,417.9574,737.2906,415.89,746.92" style="stroke:#181818;stroke-width:1.0;"/><text fill="#000000" font-family="sans-serif" font-size="13" lengthAdjust="spacing" textLength="55.8784" x="463" y="693.0669">provides</text></g><!--link ALB to backend_service--><g id="link_ALB_backend_service"><path d="M409.06,384.26 C409.25,459.11 409.8447,693.73 409.9647,740.93 " fill="none" id="ALB-to-backend_service" style="stroke:#181818;stroke-width:1.0;"/><polygon fill="#181818" points="409.98,746.93,413.9571,737.9199,409.9673,741.93,405.9571,737.9402,409.98,746.93" style="stroke:#181818;stroke-width:1.0;"/><text fill="#000000" font-family="sans-serif" font-size="13" lengthAdjust="spacing" textLength="53.5615" x="410" y="568.0669">requires</text></g><!--link Cognito to auth--><g id="link_Cognito_auth"><path d="M731.73,384.03 C754.7,394.86 782.81,408.11 808,420 C824,427.55 827.63,430.28 844,437 C902.42,460.99 969.1068,482.4787 994.2068,490.3787 " fill="none" id="Cognito-to-auth" style="stroke:#181818;stroke-width:1.0;"/><polygon fill="#181818" points="999.93,492.18,992.5461,485.6625,995.1607,490.6789,990.1443,493.2935,999.93,492.18" style="stroke:#181818;stroke-width:1.0;"/><text fill="#000000" font-family="sans-serif" font-size="13" lengthAdjust="spacing" textLength="55.8784" x="845" y="433.0669">provides</text></g><!--link Frontend to ALB--><g id="link_Frontend_ALB"><path d="M341.83,234.16 C356.72,262.06 379.3346,304.4269 394.2646,332.3969 " fill="none" id="Frontend-to-ALB" style="stroke:#181818;stroke-width:1.0;"/><polygon fill="#181818" points="397.09,337.69,396.3807,327.8667,394.7355,333.2791,389.3232,331.6339,397.09,337.69" style="stroke:#181818;stroke-width:1.0;"/><text fill="#000000" font-family="sans-serif" font-size="13" lengthAdjust="spacing" textLength="79.625" x="370" y="283.0669">HTTP/HTTPS</text></g><!--link ALB to WAF--><g id="link_ALB_WAF"><path d="M423.56,384.26 C439.62,408.81 462.0253,443.069 478.1053,467.649 " fill="none" id="ALB-to-WAF" style="stroke:#181818;stroke-width:1.0;"/><polygon fill="#181818" points="481.39,472.67,479.8103,462.9487,478.6527,468.4858,473.1156,467.3283,481.39,472.67" style="stroke:#181818;stroke-width:1.0;"/><text fill="#000000" font-family="sans-serif" font-size="13" lengthAdjust="spacing" textLength="59.7441" x="458" y="433.0669">Forwards</text></g><!--link WAF to EC2--><g id="link_WAF_EC2"><path d="M497.39,519.12 C498.85,542.29 500.7512,572.482 502.2212,595.722 " fill="none" id="WAF-to-EC2" style="stroke:#181818;stroke-width:1.0;"/><polygon fill="#181818" points="502.6,601.71,506.0239,592.4754,502.2844,596.72,498.0398,592.9805,502.6,601.71" style="stroke:#181818;stroke-width:1.0;"/><text fill="#000000" font-family="sans-serif" font-size="13" lengthAdjust="spacing" textLength="59.7441" x="501" y="568.0669">Forwards</text></g><!--link Backend to db_interface--><g id="link_Backend_db_interface"><path d="M979.75,76.24 C907.99,87.86 797.47,106.89 757,120 C740.17,125.45 737.7,131.16 721,137 C706.34,142.12 701.01,138.32 687,145 C655.71,159.92 629.3429,183.7679 615.2829,197.6279 " fill="none" id="Backend-to-db_interface" style="stroke:#181818;stroke-width:1.0;"/><polygon fill="#181818" points="611.01,201.84,620.2275,198.3704,614.5708,198.3299,614.6113,192.6732,611.01,201.84" style="stroke:#181818;stroke-width:1.0;"/><text fill="#000000" font-family="sans-serif" font-size="13" lengthAdjust="spacing" textLength="53.5615" x="758" y="133.0669">requires</text></g><!--link Backend to storage_interface--><g id="link_Backend_storage_interface"><path d="M979.84,79.69 C927.65,90.14 852.43,104.05 786,112 C729.4,118.77 712.85,104.5 658,120 C642.5,124.38 641.45,132.47 626,137 C584.49,149.18 567.72,125.71 529,145 C503.28,157.82 486.7955,182.217 478.4555,196.627 " fill="none" id="Backend-to-storage_interface" style="stroke:#181818;stroke-width:1.0;"/><polygon fill="#181818" points="475.45,201.82,483.4202,196.0342,477.9546,197.4925,476.4963,192.0269,475.45,201.82" style="stroke:#181818;stroke-width:1.0;"/><text fill="#000000" font-family="sans-serif" font-size="13" lengthAdjust="spacing" textLength="53.5615" x="659" y="133.0669">requires</text></g><!--link Backend to auth--><g id="link_Backend_auth"><path d="M1011.43,88.04 C993.4,101.96 972.9,121.71 963,145 C908.81,272.46 983.5535,442.2409 1002.4235,481.5509 " fill="none" id="Backend-to-auth" style="stroke:#181818;stroke-width:1.0;"/><polygon fill="#181818" points="1005.02,486.96,1004.7313,477.1154,1002.8562,482.4524,997.5192,480.5774,1005.02,486.96" style="stroke:#181818;stroke-width:1.0;"/><text fill="#000000" font-family="sans-serif" font-size="13" lengthAdjust="spacing" textLength="53.5615" x="946" y="283.0669">requires</text></g><!--link Backend to PaymentService--><g id="link_Backend_PaymentService"><path d="M1046.85,88.18 C1049.1,115.17 1052.3714,154.4708 1054.6314,181.5708 " fill="none" id="Backend-to-PaymentService" style="stroke:#181818;stroke-width:1.0;"/><polygon fill="#181818" points="1055.13,187.55,1058.3682,178.2487,1054.7145,182.5673,1050.3959,178.9136,1055.13,187.55" style="stroke:#181818;stroke-width:1.0;"/><text fill="#000000" font-family="sans-serif" font-size="13" lengthAdjust="spacing" textLength="31.04" x="1051" y="133.0669">Calls</text></g><!--link Backend to EmailService--><g id="link_Backend_EmailService"><path d="M1078.58,88.18 C1119.55,115.24 1183.3833,157.4135 1224.3733,184.4835 " fill="none" id="Backend-to-EmailService" style="stroke:#181818;stroke-width:1.0;"/><polygon fill="#181818" points="1229.38,187.79,1224.0742,179.4925,1225.2077,185.0346,1219.6656,186.1681,1229.38,187.79" style="stroke:#181818;stroke-width:1.0;"/><text fill="#000000" font-family="sans-serif" font-size="13" lengthAdjust="spacing" textLength="31.04" x="1148" y="133.0669">Calls</text></g><!--link PaymentService to payment_gateway_interface--><g id="link_PaymentService_payment_gateway_interface"><path d="M1054.06,234.31 C1053.19,251.47 1055.29,274.31 1070,287 C1083.8,298.91 1380.53,289.8 1398,295 C1437.45,306.75 1472.2171,333.5557 1489.4171,348.1657 " fill="none" id="PaymentService-to-payment_gateway_interface" style="stroke:#181818;stroke-width:1.0;"/><polygon fill="#181818" points="1493.99,352.05,1489.7201,343.1748,1490.1792,348.813,1484.541,349.2721,1493.99,352.05" style="stroke:#181818;stroke-width:1.0;"/><text fill="#000000" font-family="sans-serif" font-size="13" lengthAdjust="spacing" textLength="53.5615" x="1071" y="283.0669">requires</text></g><!--link PaymentService to auth--><g id="link_PaymentService_auth"><path d="M1053.23,234.21 C1043.33,292.58 1017.8925,442.5543 1011.4425,480.6143 " fill="none" id="PaymentService-to-auth" style="stroke:#181818;stroke-width:1.0;"/><polygon fill="#181818" points="1010.44,486.53,1015.8876,478.3249,1011.2754,481.6003,1008,476.9882,1010.44,486.53" style="stroke:#181818;stroke-width:1.0;"/><text fill="#000000" font-family="sans-serif" font-size="13" lengthAdjust="spacing" textLength="53.5615" x="1043" y="365.5669">requires</text></g><!--link EmailService to email_service_interface--><g id="link_EmailService_email_service_interface"><path d="M1302.97,234 C1337.57,251.84 1389.53,275.79 1438,287 C1472.9,295.07 1565.44,282.48 1599,295 C1631.58,307.15 1657.4874,332.6272 1670.7574,347.2472 " fill="none" id="EmailService-to-email_service_interface" style="stroke:#181818;stroke-width:1.0;"/><polygon fill="#181818" points="1674.79,351.69,1671.703,342.3374,1671.4295,347.9877,1665.7793,347.7142,1674.79,351.69" style="stroke:#181818;stroke-width:1.0;"/><text fill="#000000" font-family="sans-serif" font-size="13" lengthAdjust="spacing" textLength="53.5615" x="1439" y="283.0669">requires</text></g><!--link EmailService to auth--><g id="link_EmailService_auth"><path d="M1292.91,234.23 C1308.63,248.77 1322.78,268.45 1313,287 C1245.72,414.55 1066.815,476.9843 1023.775,490.4843 " fill="none" id="EmailService-to-auth" style="stroke:#181818;stroke-width:1.0;"/><polygon fill="#181818" points="1018.05,492.28,1027.8346,493.4031,1022.8208,490.7836,1025.4403,485.7698,1018.05,492.28" style="stroke:#181818;stroke-width:1.0;"/><text fill="#000000" font-family="sans-serif" font-size="13" lengthAdjust="spacing" textLength="53.5615" x="1308" y="365.5669">requires</text></g><!--link Database to db_interface--><g id="link_Database_db_interface"><path d="M600.57,88.05 C586.44,95.86 573.34,106.26 565,120 C547.92,148.12 574.3764,180.9994 590.2164,197.3594 " fill="none" id="Database-to-db_interface" style="stroke:#181818;stroke-width:1.0;"/><polygon fill="#181818" points="594.39,201.67,591.0034,192.4217,590.912,198.0778,585.2559,197.9865,594.39,201.67" style="stroke:#181818;stroke-width:1.0;"/><text fill="#000000" font-family="sans-serif" font-size="13" lengthAdjust="spacing" textLength="55.8784" x="566" y="133.0669">provides</text></g><!--link Storage to storage_interface--><g id="link_Storage_storage_interface"><path d="M476.81,88.19 C473.31,97.79 469.74,109.27 468,120 C463.14,149.94 466.4947,180.2542 468.8247,196.0542 " fill="none" id="Storage-to-storage_interface" style="stroke:#181818;stroke-width:1.0;"/><polygon fill="#181818" points="469.7,201.99,472.3442,192.5027,468.9705,197.0435,464.4298,193.6699,469.7,201.99" style="stroke:#181818;stroke-width:1.0;"/><text fill="#000000" font-family="sans-serif" font-size="13" lengthAdjust="spacing" textLength="55.8784" x="469" y="133.0669">provides</text></g><!--link PaymentGateway to payment_gateway_interface--><g id="link_PaymentGateway_payment_gateway_interface"><path d="M1501.3,234.16 C1501.75,267.7 1502.5086,323.8106 1502.8086,345.9206 " fill="none" id="PaymentGateway-to-payment_gateway_interface" style="stroke:#181818;stroke-width:1.0;"/><polygon fill="#181818" points="1502.89,351.92,1506.7675,342.8666,1502.8222,346.9205,1498.7683,342.9751,1502.89,351.92" style="stroke:#181818;stroke-width:1.0;"/><text fill="#000000" font-family="sans-serif" font-size="13" lengthAdjust="spacing" textLength="55.8784" x="1503" y="283.0669">provides</text></g><!--link ExternalEmailService to email_service_interface--><g id="link_ExternalEmailService_email_service_interface"><path d="M1690.5,234.16 C1688.24,267.7 1684.4434,323.8236 1682.9534,345.9336 " fill="none" id="ExternalEmailService-to-email_service_interface" style="stroke:#181818;stroke-width:1.0;"/><polygon fill="#181818" points="1682.55,351.92,1687.1461,343.2093,1682.8862,346.9313,1679.1642,342.6714,1682.55,351.92" style="stroke:#181818;stroke-width:1.0;"/><text fill="#000000" font-family="sans-serif" font-size="13" lengthAdjust="spacing" textLength="55.8784" x="1688" y="283.0669">provides</text></g><!--link Frontend to Cognito--><g id="link_Frontend_Cognito"><path d="M365.32,234.24 C379.95,242.66 397.35,251.73 414,258 C427.85,263.22 529.44,284.38 544,287 C569.61,291.61 578.04,284.85 602,295 C625.43,304.92 643.5038,319.1252 659.1438,333.7952 " fill="none" id="Frontend-to-Cognito" style="stroke:#181818;stroke-width:1.0;stroke-dasharray:7.0,7.0;"/><polygon fill="#181818" points="663.52,337.9,659.6922,328.8254,659.8732,334.4794,654.2192,334.6603,663.52,337.9" style="stroke:#181818;stroke-width:1.0;"/><text fill="#000000" font-family="sans-serif" font-size="13" lengthAdjust="spacing" textLength="113.8008" x="545" y="283.0669">Authenticates via</text></g><!--link Backend to Cognito--><g id="link_Backend_Cognito"><path d="M983.54,88.1 C937.86,103.78 873.71,124.23 816,137 C803.08,139.86 767.29,136.68 757,145 C697.16,193.39 686.9442,287.2638 685.3542,331.7638 " fill="none" id="Backend-to-Cognito" style="stroke:#181818;stroke-width:1.0;stroke-dasharray:7.0,7.0;"/><polygon fill="#181818" points="685.14,337.76,689.4588,328.9086,685.3185,332.7632,681.4639,328.6229,685.14,337.76" style="stroke:#181818;stroke-width:1.0;"/><text fill="#000000" font-family="sans-serif" font-size="13" lengthAdjust="spacing" textLength="142.4478" x="758" y="215.5669">Validates Tokens with</text></g><!--link PaymentService to Cognito--><g id="link_PaymentService_Cognito"><path d="M984.39,234.09 C953.15,242.81 916.05,252.13 882,258 C850.79,263.38 766.94,253.36 740,270 C715.23,285.3 702.1118,310.6902 694.1418,332.0002 " fill="none" id="PaymentService-to-Cognito" style="stroke:#181818;stroke-width:1.0;stroke-dasharray:7.0,7.0;"/><polygon fill="#181818" points="692.04,337.62,698.9393,330.5915,693.7915,332.9368,691.4462,327.7891,692.04,337.62" style="stroke:#181818;stroke-width:1.0;"/><text fill="#000000" font-family="sans-serif" font-size="13" lengthAdjust="spacing" textLength="142.4478" x="741" y="283.0669">Validates Tokens with</text></g><!--link EmailService to Cognito--><g id="link_EmailService_Cognito"><path d="M1225.6,234.09 C1189.65,255.13 1139.31,284.03 1129,287 C1095.43,296.67 1006.61,290.24 972,295 C895.07,305.59 814.1212,324.9884 756.3212,340.2484 " fill="none" id="EmailService-to-Cognito" style="stroke:#181818;stroke-width:1.0;stroke-dasharray:7.0,7.0;"/><polygon fill="#181818" points="750.52,341.78,760.2429,343.3501,755.3544,340.5037,758.2008,335.6151,750.52,341.78" style="stroke:#181818;stroke-width:1.0;"/><text fill="#000000" font-family="sans-serif" font-size="13" lengthAdjust="spacing" textLength="142.4478" x="1162" y="283.0669">Validates Tokens with</text></g><!--SRC=[ZPPBRzf0483l_XKZBZsHIEcDGoJ2gqWSQ4sRGnIXmLx8AlQQxYvGLFM_T_PXn-j74WvWPhwPdUU2UkNYY19pE6BoYWSMwsl6GB94epXaB58La1JviH1CQ8USykokfkL2Cxd7fEKW-W9JjkU2mR94L5JHC5XklsqswstCv9adR02eu4NhurOvGOYEJ_g58k09Qbu82oE9GkY1Cc4Y3LpklApJQsamVR1ikjjMwX2CTI6fHfPIxhaFNUCrfqYt2zJiWbThSlIoWvFrcSvov5aGFRCI7tlDZ6exbmLzfU1NU6KIrgwBaUyc34Bz0Fv6GA-dM9zI2kNPVLiAfUKfeOoyO9pcN3n78Gl3uJqybGwVOGG_5VMowU4zpFdj8VwPV9PYBz7vEaa6DkgtR49jc5Crdp0OhrmdwREbUepXSJotQlfigcUJEp2veA0njH19kdoCuuKx8bvqgIV5GN1TMCG_ksfII3Rz-enJ0IJxVUBIbya4OPZ6q19sbCMPfnuhNRMnm9i_tg9cMUfkB50smXB6wGZCIjwQjpWuYGf6odaXBoXJvzs8ZCh4N5FPNlgzQZQnNBU-xl6CvqEVb2sWDsXoViNgYnAAMiqrQnIJ9ouETIilTpRMg8pSP5Q_3fgrhNEj2-4zs3UYqhU0C1D29vXbRJ_rq2l8KWq71kwzVvgHTjXs1XoSRgYUYweru4sxfdSxFbFKs9mT8-iTd7MXz46o-FiARi5iuOzfR1jih7QeMDUcnbyjugzsbrV9T_K_M45lrTl_2hO9pVwGHc06FdNrbbUfAgzzrPMUwmhudnHLdtWlwvnu26RT7zIU-T3JXmCJrA7BwmS34POc_65tVnKmCSyggkwdcvlxwZORrKsOWZF7g5oCaFk56Kyjiob8hU32wHz3OyG_On8azmc3_m00]--></g></svg>