<svg xmlns="http://www.w3.org/2000/svg" contentStyleType="text/css" height="1085px" preserveAspectRatio="none"
     style="width:1936px;height:1085px;background:#FFFFFF;" version="1.1" viewBox="0 0 1936 1085" width="1936px"
     zoomAndPan="magnify"><defs/><g><!--cluster AWS Runtime Environment--><g id="cluster_AWS Runtime Environment"><path d="M56.5,6 L270.583,6 A3.75,3.75 0 0 1 273.083,8.5 L280.083,28.2969 L1926.5,28.2969 A2.5,2.5 0 0 1 1929,30.7969 L1929,1075.5 A2.5,2.5 0 0 1 1926.5,1078 L56.5,1078 A2.5,2.5 0 0 1 54,1075.5 L54,8.5 A2.5,2.5 0 0 1 56.5,6 " fill="none" style="stroke:#000000;stroke-width:1.5;"/><line style="stroke:#000000;stroke-width:1.5;" x1="54" x2="280.083" y1="28.2969" y2="28.2969"/><text fill="#000000" font-family="sans-serif" font-size="14" font-weight="bold" lengthAdjust="spacing" textLength="213.083" x="58" y="20.9951">AWS Runtime Environment</text></g><!--cluster VPC--><g id="cluster_VPC"><polygon fill="none" points="328,59,338,49,1905,49,1905,1044,1895,1054,328,1054,328,59" style="stroke:#181818;stroke-width:1.0;"/><line style="stroke:#181818;stroke-width:1.0;" x1="1895" x2="1905" y1="59" y2="49"/><line style="stroke:#181818;stroke-width:1.0;" x1="328" x2="1895" y1="59" y2="59"/><line style="stroke:#181818;stroke-width:1.0;" x1="1895" x2="1895" y1="59" y2="1054"/><text fill="#000000" font-family="sans-serif" font-size="14" font-style="italic" lengthAdjust="spacing" textLength="57.2715" x="1083.8643" y="74.9951">&#171;Cloud&#187;</text><text fill="#000000" font-family="sans-serif" font-size="14" font-weight="bold" lengthAdjust="spacing" textLength="31.3701" x="1096.8149" y="91.292">VPC</text></g><!--cluster Public Subnet--><g id="cluster_Public Subnet"><polygon fill="none" points="757,123,767,113,967,113,967,343,957,353,757,353,757,123" style="stroke:#181818;stroke-width:1.0;"/><line style="stroke:#181818;stroke-width:1.0;" x1="957" x2="967" y1="123" y2="113"/><line style="stroke:#181818;stroke-width:1.0;" x1="757" x2="957" y1="123" y2="123"/><line style="stroke:#181818;stroke-width:1.0;" x1="957" x2="957" y1="123" y2="353"/><text fill="#000000" font-family="sans-serif" font-size="14" font-weight="bold" lengthAdjust="spacing" textLength="109.2451" x="803.3774" y="138.9951">Public Subnet</text></g><!--cluster Private Subnet--><g id="cluster_Private Subnet"><polygon fill="none" points="496,412,506,402,1881,402,1881,1020,1871,1030,496,1030,496,412" style="stroke:#181818;stroke-width:1.0;"/><line style="stroke:#181818;stroke-width:1.0;" x1="1871" x2="1881" y1="412" y2="402"/><line style="stroke:#181818;stroke-width:1.0;" x1="496" x2="1871" y1="412" y2="412"/><line style="stroke:#181818;stroke-width:1.0;" x1="1871" x2="1871" y1="412" y2="1030"/><text fill="#000000" font-family="sans-serif" font-size="14" font-weight="bold" lengthAdjust="spacing" textLength="117.8242" x="1125.5879" y="427.9951">Private Subnet</text></g><!--cluster Security--><g id="cluster_Security"><polygon fill="none" points="78,420.5,88,410.5,304,410.5,304,502.5,294,512.5,78,512.5,78,420.5" style="stroke:#181818;stroke-width:1.0;"/><line style="stroke:#181818;stroke-width:1.0;" x1="294" x2="304" y1="420.5" y2="410.5"/><line style="stroke:#181818;stroke-width:1.0;" x1="78" x2="294" y1="420.5" y2="420.5"/><line style="stroke:#181818;stroke-width:1.0;" x1="294" x2="294" y1="420.5" y2="512.5"/><text fill="#000000" font-family="sans-serif" font-size="14" font-weight="bold" lengthAdjust="spacing" textLength="65.3652" x="154.3174" y="436.4951">Security</text></g><!--entity NATGateway--><g id="elem_NATGateway"><rect fill="#F1F1F1" height="46.2969" rx="2.5" ry="2.5" style="stroke:#181818;stroke-width:0.5;" width="134.8965" x="344.5" y="450.5"/><rect fill="#F1F1F1" height="10" style="stroke:#181818;stroke-width:0.5;" width="15" x="459.3965" y="455.5"/><rect fill="#F1F1F1" height="2" style="stroke:#181818;stroke-width:0.5;" width="4" x="457.3965" y="457.5"/><rect fill="#F1F1F1" height="2" style="stroke:#181818;stroke-width:0.5;" width="4" x="457.3965" y="461.5"/><text fill="#000000" font-family="sans-serif" font-size="14" lengthAdjust="spacing" textLength="94.8965" x="359.5" y="483.4951">NAT Gateway</text></g><!--entity CloudFront--><g id="elem_CloudFront"><rect fill="#F1F1F1" height="46.2969" rx="2.5" ry="2.5" style="stroke:#181818;stroke-width:0.5;" width="177.7578" x="773" y="291"/><rect fill="#F1F1F1" height="10" style="stroke:#181818;stroke-width:0.5;" width="15" x="930.7578" y="296"/><rect fill="#F1F1F1" height="2" style="stroke:#181818;stroke-width:0.5;" width="4" x="928.7578" y="298"/><rect fill="#F1F1F1" height="2" style="stroke:#181818;stroke-width:0.5;" width="4" x="928.7578" y="302"/><text fill="#000000" font-family="sans-serif" font-size="14" lengthAdjust="spacing" textLength="137.7578" x="788" y="323.9951">Amazon CloudFront</text></g><!--entity WAFSecurity--><g id="elem_WAFSecurity"><rect fill="#F1F1F1" height="46.2969" rx="2.5" ry="2.5" style="stroke:#181818;stroke-width:0.5;" width="108.2295" x="808" y="153"/><rect fill="#F1F1F1" height="10" style="stroke:#181818;stroke-width:0.5;" width="15" x="896.2295" y="158"/><rect fill="#F1F1F1" height="2" style="stroke:#181818;stroke-width:0.5;" width="4" x="894.2295" y="160"/><rect fill="#F1F1F1" height="2" style="stroke:#181818;stroke-width:0.5;" width="4" x="894.2295" y="164"/><text fill="#000000" font-family="sans-serif" font-size="14" lengthAdjust="spacing" textLength="68.2295" x="823" y="185.9951">AWS WAF</text></g><!--entity Amplify--><g id="elem_Amplify"><rect fill="#F1F1F1" height="62.5938" rx="2.5" ry="2.5" style="stroke:#181818;stroke-width:0.5;" width="129.8516" x="659" y="442"/><rect fill="#F1F1F1" height="10" style="stroke:#181818;stroke-width:0.5;" width="15" x="768.8516" y="447"/><rect fill="#F1F1F1" height="2" style="stroke:#181818;stroke-width:0.5;" width="4" x="766.8516" y="449"/><rect fill="#F1F1F1" height="2" style="stroke:#181818;stroke-width:0.5;" width="4" x="766.8516" y="453"/><text fill="#000000" font-family="sans-serif" font-size="14" lengthAdjust="spacing" textLength="89.8516" x="674" y="474.9951">AWS Amplify</text><text fill="#000000" font-family="sans-serif" font-size="14" lengthAdjust="spacing" textLength="82.8311" x="674" y="491.292">(React App)</text></g><!--entity S3Media--><g id="elem_S3Media"><rect fill="#F1F1F1" height="62.5938" rx="2.5" ry="2.5" style="stroke:#181818;stroke-width:0.5;" width="142.9834" x="1539.5" y="442"/><rect fill="#F1F1F1" height="10" style="stroke:#181818;stroke-width:0.5;" width="15" x="1662.4834" y="447"/><rect fill="#F1F1F1" height="2" style="stroke:#181818;stroke-width:0.5;" width="4" x="1660.4834" y="449"/><rect fill="#F1F1F1" height="2" style="stroke:#181818;stroke-width:0.5;" width="4" x="1660.4834" y="453"/><text fill="#000000" font-family="sans-serif" font-size="14" lengthAdjust="spacing" textLength="78.8252" x="1554.5" y="474.9951">Amazon S3</text><text fill="#000000" font-family="sans-serif" font-size="14" lengthAdjust="spacing" textLength="102.9834" x="1554.5" y="491.292">(Media Assets)</text></g><!--entity WAF--><g id="elem_WAF"><rect fill="#F1F1F1" height="46.2969" rx="2.5" ry="2.5" style="stroke:#181818;stroke-width:0.5;" width="108.2295" x="1718" y="450.5"/><rect fill="#F1F1F1" height="10" style="stroke:#181818;stroke-width:0.5;" width="15" x="1806.2295" y="455.5"/><rect fill="#F1F1F1" height="2" style="stroke:#181818;stroke-width:0.5;" width="4" x="1804.2295" y="457.5"/><rect fill="#F1F1F1" height="2" style="stroke:#181818;stroke-width:0.5;" width="4" x="1804.2295" y="461.5"/><text fill="#000000" font-family="sans-serif" font-size="14" lengthAdjust="spacing" textLength="68.2295" x="1733" y="483.4951">AWS WAF</text></g><!--entity ilimBackend--><g id="elem_ilimBackend"><rect fill="#F1F1F1" height="46.2969" rx="2.5" ry="2.5" style="stroke:#181818;stroke-width:0.5;" width="186.1934" x="656" y="582"/><rect fill="#F1F1F1" height="10" style="stroke:#181818;stroke-width:0.5;" width="15" x="822.1934" y="587"/><rect fill="#F1F1F1" height="2" style="stroke:#181818;stroke-width:0.5;" width="4" x="820.1934" y="589"/><rect fill="#F1F1F1" height="2" style="stroke:#181818;stroke-width:0.5;" width="4" x="820.1934" y="593"/><text fill="#000000" font-family="sans-serif" font-size="14" lengthAdjust="spacing" textLength="146.1934" x="671" y="614.9951">ilim-backend Service</text></g><!--entity paymentservice--><g id="elem_paymentservice"><rect fill="#F1F1F1" height="46.2969" rx="2.5" ry="2.5" style="stroke:#181818;stroke-width:0.5;" width="208.7041" x="1010.5" y="705"/><rect fill="#F1F1F1" height="10" style="stroke:#181818;stroke-width:0.5;" width="15" x="1199.2041" y="710"/><rect fill="#F1F1F1" height="2" style="stroke:#181818;stroke-width:0.5;" width="4" x="1197.2041" y="712"/><rect fill="#F1F1F1" height="2" style="stroke:#181818;stroke-width:0.5;" width="4" x="1197.2041" y="716"/><text fill="#000000" font-family="sans-serif" font-size="14" lengthAdjust="spacing" textLength="168.7041" x="1025.5" y="737.9951">paymentservice Service</text></g><!--entity ilimdeliveryserv--><g id="elem_ilimdeliveryserv"><rect fill="#F1F1F1" height="46.2969" rx="2.5" ry="2.5" style="stroke:#181818;stroke-width:0.5;" width="207.665" x="645" y="705"/><rect fill="#F1F1F1" height="10" style="stroke:#181818;stroke-width:0.5;" width="15" x="832.665" y="710"/><rect fill="#F1F1F1" height="2" style="stroke:#181818;stroke-width:0.5;" width="4" x="830.665" y="712"/><rect fill="#F1F1F1" height="2" style="stroke:#181818;stroke-width:0.5;" width="4" x="830.665" y="716"/><text fill="#000000" font-family="sans-serif" font-size="14" lengthAdjust="spacing" textLength="167.665" x="660" y="737.9951">ilimdeliveryserv Service</text></g><!--entity RDS--><g id="elem_RDS"><rect fill="#F1F1F1" height="62.5938" rx="2.5" ry="2.5" style="stroke:#181818;stroke-width:0.5;" width="131.6768" x="886" y="828"/><rect fill="#F1F1F1" height="10" style="stroke:#181818;stroke-width:0.5;" width="15" x="997.6768" y="833"/><rect fill="#F1F1F1" height="2" style="stroke:#181818;stroke-width:0.5;" width="4" x="995.6768" y="835"/><rect fill="#F1F1F1" height="2" style="stroke:#181818;stroke-width:0.5;" width="4" x="995.6768" y="839"/><text fill="#000000" font-family="sans-serif" font-size="14" lengthAdjust="spacing" textLength="90.4258" x="901" y="860.9951">Amazon RDS</text><text fill="#000000" font-family="sans-serif" font-size="14" lengthAdjust="spacing" textLength="91.6768" x="901" y="877.292">(PostgreSQL)</text></g><!--entity Kafka--><g id="elem_Kafka"><rect fill="#F1F1F1" height="46.2969" rx="2.5" ry="2.5" style="stroke:#181818;stroke-width:0.5;" width="175.0029" x="675.5" y="836.5"/><rect fill="#F1F1F1" height="10" style="stroke:#181818;stroke-width:0.5;" width="15" x="830.5029" y="841.5"/><rect fill="#F1F1F1" height="2" style="stroke:#181818;stroke-width:0.5;" width="4" x="828.5029" y="843.5"/><rect fill="#F1F1F1" height="2" style="stroke:#181818;stroke-width:0.5;" width="4" x="828.5029" y="847.5"/><text fill="#000000" font-family="sans-serif" font-size="14" lengthAdjust="spacing" textLength="135.0029" x="690.5" y="869.4951">Amazon MSK Kafka</text></g><!--entity SES--><g id="elem_SES"><rect fill="#F1F1F1" height="46.2969" rx="2.5" ry="2.5" style="stroke:#181818;stroke-width:0.5;" width="127.6504" x="512" y="836.5"/><rect fill="#F1F1F1" height="10" style="stroke:#181818;stroke-width:0.5;" width="15" x="619.6504" y="841.5"/><rect fill="#F1F1F1" height="2" style="stroke:#181818;stroke-width:0.5;" width="4" x="617.6504" y="843.5"/><rect fill="#F1F1F1" height="2" style="stroke:#181818;stroke-width:0.5;" width="4" x="617.6504" y="847.5"/><text fill="#000000" font-family="sans-serif" font-size="14" lengthAdjust="spacing" textLength="87.6504" x="527" y="869.4951">Amazon SES</text></g><!--entity ECS1--><g id="elem_ECS1"><rect fill="#F1F1F1" height="62.5938" rx="2.5" ry="2.5" style="stroke:#181818;stroke-width:0.5;" width="186.9453" x="1497.5" y="828"/><rect fill="#F1F1F1" height="10" style="stroke:#181818;stroke-width:0.5;" width="15" x="1664.4453" y="833"/><rect fill="#F1F1F1" height="2" style="stroke:#181818;stroke-width:0.5;" width="4" x="1662.4453" y="835"/><rect fill="#F1F1F1" height="2" style="stroke:#181818;stroke-width:0.5;" width="4" x="1662.4453" y="839"/><text fill="#000000" font-family="sans-serif" font-size="14" lengthAdjust="spacing" textLength="146.9453" x="1512.5" y="860.9951">Amazon ECS Fargate</text><text fill="#000000" font-family="sans-serif" font-size="14" lengthAdjust="spacing" textLength="47.3389" x="1512.5" y="877.292">(ECS1)</text></g><!--entity ECS2--><g id="elem_ECS2"><rect fill="#F1F1F1" height="62.5938" rx="2.5" ry="2.5" style="stroke:#181818;stroke-width:0.5;" width="186.9453" x="1275.5" y="828"/><rect fill="#F1F1F1" height="10" style="stroke:#181818;stroke-width:0.5;" width="15" x="1442.4453" y="833"/><rect fill="#F1F1F1" height="2" style="stroke:#181818;stroke-width:0.5;" width="4" x="1440.4453" y="835"/><rect fill="#F1F1F1" height="2" style="stroke:#181818;stroke-width:0.5;" width="4" x="1440.4453" y="839"/><text fill="#000000" font-family="sans-serif" font-size="14" lengthAdjust="spacing" textLength="146.9453" x="1290.5" y="860.9951">Amazon ECS Fargate</text><text fill="#000000" font-family="sans-serif" font-size="14" lengthAdjust="spacing" textLength="47.3389" x="1290.5" y="877.292">(ECS2)</text></g><!--entity ECS3--><g id="elem_ECS3"><rect fill="#F1F1F1" height="62.5938" rx="2.5" ry="2.5" style="stroke:#181818;stroke-width:0.5;" width="186.9453" x="1053.5" y="828"/><rect fill="#F1F1F1" height="10" style="stroke:#181818;stroke-width:0.5;" width="15" x="1220.4453" y="833"/><rect fill="#F1F1F1" height="2" style="stroke:#181818;stroke-width:0.5;" width="4" x="1218.4453" y="835"/><rect fill="#F1F1F1" height="2" style="stroke:#181818;stroke-width:0.5;" width="4" x="1218.4453" y="839"/><text fill="#000000" font-family="sans-serif" font-size="14" lengthAdjust="spacing" textLength="146.9453" x="1068.5" y="860.9951">Amazon ECS Fargate</text><text fill="#000000" font-family="sans-serif" font-size="14" lengthAdjust="spacing" textLength="47.3389" x="1068.5" y="877.292">(ECS3)</text></g><!--entity ECR--><g id="elem_ECR"><rect fill="#F1F1F1" height="46.2969" rx="2.5" ry="2.5" style="stroke:#181818;stroke-width:0.5;" width="129.3799" x="1414.5" y="968"/><rect fill="#F1F1F1" height="10" style="stroke:#181818;stroke-width:0.5;" width="15" x="1523.8799" y="973"/><rect fill="#F1F1F1" height="2" style="stroke:#181818;stroke-width:0.5;" width="4" x="1521.8799" y="975"/><rect fill="#F1F1F1" height="2" style="stroke:#181818;stroke-width:0.5;" width="4" x="1521.8799" y="979"/><text fill="#000000" font-family="sans-serif" font-size="14" lengthAdjust="spacing" textLength="89.3799" x="1429.5" y="1000.9951">Amazon ECR</text></g><!--entity SecretsManager--><g id="elem_SecretsManager"><rect fill="#F1F1F1" height="46.2969" rx="2.5" ry="2.5" style="stroke:#181818;stroke-width:0.5;" width="194.9229" x="837.5" y="450.5"/><rect fill="#F1F1F1" height="10" style="stroke:#181818;stroke-width:0.5;" width="15" x="1012.4229" y="455.5"/><rect fill="#F1F1F1" height="2" style="stroke:#181818;stroke-width:0.5;" width="4" x="1010.4229" y="457.5"/><rect fill="#F1F1F1" height="2" style="stroke:#181818;stroke-width:0.5;" width="4" x="1010.4229" y="461.5"/><text fill="#000000" font-family="sans-serif" font-size="14" lengthAdjust="spacing" textLength="154.9229" x="852.5" y="483.4951">AWS Secrets Manager</text></g><!--entity CodeCommit--><g id="elem_CodeCommit"><rect fill="#F1F1F1" height="46.2969" rx="2.5" ry="2.5" style="stroke:#181818;stroke-width:0.5;" width="167.5928" x="1541" y="582"/><rect fill="#F1F1F1" height="10" style="stroke:#181818;stroke-width:0.5;" width="15" x="1688.5928" y="587"/><rect fill="#F1F1F1" height="2" style="stroke:#181818;stroke-width:0.5;" width="4" x="1686.5928" y="589"/><rect fill="#F1F1F1" height="2" style="stroke:#181818;stroke-width:0.5;" width="4" x="1686.5928" y="593"/><text fill="#000000" font-family="sans-serif" font-size="14" lengthAdjust="spacing" textLength="127.5928" x="1556" y="614.9951">AWS CodeCommit</text></g><!--entity CodeBuild--><g id="elem_CodeBuild"><rect fill="#F1F1F1" height="46.2969" rx="2.5" ry="2.5" style="stroke:#181818;stroke-width:0.5;" width="147.7412" x="1715" y="705"/><rect fill="#F1F1F1" height="10" style="stroke:#181818;stroke-width:0.5;" width="15" x="1842.7412" y="710"/><rect fill="#F1F1F1" height="2" style="stroke:#181818;stroke-width:0.5;" width="4" x="1840.7412" y="712"/><rect fill="#F1F1F1" height="2" style="stroke:#181818;stroke-width:0.5;" width="4" x="1840.7412" y="716"/><text fill="#000000" font-family="sans-serif" font-size="14" lengthAdjust="spacing" textLength="107.7412" x="1730" y="737.9951">AWS CodeBuild</text></g><!--entity DockerImages--><g id="elem_DockerImages"><rect fill="#F1F1F1" height="46.2969" rx="2.5" ry="2.5" style="stroke:#181818;stroke-width:0.5;" width="145.1094" x="1719.5" y="836.5"/><rect fill="#F1F1F1" height="10" style="stroke:#181818;stroke-width:0.5;" width="15" x="1844.6094" y="841.5"/><rect fill="#F1F1F1" height="2" style="stroke:#181818;stroke-width:0.5;" width="4" x="1842.6094" y="843.5"/><rect fill="#F1F1F1" height="2" style="stroke:#181818;stroke-width:0.5;" width="4" x="1842.6094" y="847.5"/><text fill="#000000" font-family="sans-serif" font-size="14" lengthAdjust="spacing" textLength="105.1094" x="1734.5" y="869.4951">Docker Images</text></g><!--entity CodeDeploy--><g id="elem_CodeDeploy"><rect fill="#F1F1F1" height="46.2969" rx="2.5" ry="2.5" style="stroke:#181818;stroke-width:0.5;" width="161.6182" x="1340" y="705"/><rect fill="#F1F1F1" height="10" style="stroke:#181818;stroke-width:0.5;" width="15" x="1481.6182" y="710"/><rect fill="#F1F1F1" height="2" style="stroke:#181818;stroke-width:0.5;" width="4" x="1479.6182" y="712"/><rect fill="#F1F1F1" height="2" style="stroke:#181818;stroke-width:0.5;" width="4" x="1479.6182" y="716"/><text fill="#000000" font-family="sans-serif" font-size="14" lengthAdjust="spacing" textLength="121.6182" x="1355" y="737.9951">AWS CodeDeploy</text></g><!--entity CodePipeline--><g id="elem_CodePipeline"><rect fill="#F1F1F1" height="46.2969" rx="2.5" ry="2.5" style="stroke:#181818;stroke-width:0.5;" width="167.6953" x="1336" y="450.5"/><rect fill="#F1F1F1" height="10" style="stroke:#181818;stroke-width:0.5;" width="15" x="1483.6953" y="455.5"/><rect fill="#F1F1F1" height="2" style="stroke:#181818;stroke-width:0.5;" width="4" x="1481.6953" y="457.5"/><rect fill="#F1F1F1" height="2" style="stroke:#181818;stroke-width:0.5;" width="4" x="1481.6953" y="461.5"/><text fill="#000000" font-family="sans-serif" font-size="14" lengthAdjust="spacing" textLength="127.6953" x="1351" y="483.4951">AWS CodePipeline</text></g><!--entity SecretsManagerSecurity--><g id="elem_SecretsManagerSecurity"><rect fill="#F1F1F1" height="46.2969" rx="2.5" ry="2.5" style="stroke:#181818;stroke-width:0.5;" width="194.9229" x="93.5" y="450.5"/><rect fill="#F1F1F1" height="10" style="stroke:#181818;stroke-width:0.5;" width="15" x="268.4229" y="455.5"/><rect fill="#F1F1F1" height="2" style="stroke:#181818;stroke-width:0.5;" width="4" x="266.4229" y="457.5"/><rect fill="#F1F1F1" height="2" style="stroke:#181818;stroke-width:0.5;" width="4" x="266.4229" y="461.5"/><text fill="#000000" font-family="sans-serif" font-size="14" lengthAdjust="spacing" textLength="154.9229" x="108.5" y="483.4951">AWS Secrets Manager</text></g><!--entity User--><g id="elem_User"><ellipse cx="21.9551" cy="146.5" fill="#F1F1F1" rx="8" ry="8" style="stroke:#181818;stroke-width:0.5;"/><path d="M21.9551,154.5 L21.9551,181.5 M8.9551,162.5 L34.9551,162.5 M21.9551,181.5 L8.9551,196.5 M21.9551,181.5 L34.9551,196.5 " fill="none" style="stroke:#181818;stroke-width:0.5;"/><text fill="#000000" font-family="sans-serif" font-size="14" lengthAdjust="spacing" textLength="31.9102" x="6" y="210.9951">User</text></g><!--link User to CloudFront--><g id="link_User_CloudFront"><path d="M38.03,179.6 C128.59,194.26 573.0171,266.2111 766.9771,297.6111 " fill="none" id="User-to-CloudFront" style="stroke:#181818;stroke-width:1.0;"/><polygon fill="#181818" points="772.9,298.57,764.6549,293.1831,767.9643,297.771,763.3764,301.0803,772.9,298.57" style="stroke:#181818;stroke-width:1.0;"/><text fill="#000000" font-family="sans-serif" font-size="13" lengthAdjust="spacing" textLength="59.5029" x="518" y="257.0669">Accesses</text></g><!--link CloudFront to Amplify--><g id="link_CloudFront_Amplify"><path d="M842.52,337.23 C818.6,364.54 781.8444,406.4875 754.9244,437.2075 " fill="none" id="CloudFront-to-Amplify" style="stroke:#181818;stroke-width:1.0;"/><polygon fill="#181818" points="750.97,441.72,759.9099,437.5874,754.2653,437.9595,753.8932,432.3149,750.97,441.72" style="stroke:#181818;stroke-width:1.0;"/><text fill="#000000" font-family="sans-serif" font-size="13" lengthAdjust="spacing" textLength="41.7485" x="814" y="382.0669">HTTPS</text></g><!--link CloudFront to S3Media--><g id="link_CloudFront_S3Media"><path d="M951.03,319.11 C1106.85,327.38 1421.94,349.2 1522,394 C1546.26,404.86 1564.5253,420.3716 1580.7853,437.3916 " fill="none" id="CloudFront-to-S3Media" style="stroke:#181818;stroke-width:1.0;"/><polygon fill="#181818" points="1584.93,441.73,1581.6053,432.4593,1581.4761,438.1147,1575.8207,437.9855,1584.93,441.73" style="stroke:#181818;stroke-width:1.0;"/><text fill="#000000" font-family="sans-serif" font-size="13" lengthAdjust="spacing" textLength="85.4839" x="1494" y="382.0669">Media Assets</text></g><!--link CloudFront to WAF--><g id="link_CloudFront_WAF"><path d="M951.03,317.46 C1088.39,322.18 1359.98,335.25 1588,369 C1638.45,376.47 1655.84,368.48 1700,394 C1724.02,407.88 1741.1044,427.5806 1754.0344,445.5406 " fill="none" id="CloudFront-to-WAF" style="stroke:#181818;stroke-width:1.0;"/><polygon fill="#181818" points="1757.54,450.41,1755.5278,440.7689,1754.6187,446.3522,1749.0353,445.443,1757.54,450.41" style="stroke:#181818;stroke-width:1.0;"/><text fill="#000000" font-family="sans-serif" font-size="13" lengthAdjust="spacing" textLength="82.8052" x="1683" y="382.0669">Protected by</text></g><!--link Amplify to ilimBackend--><g id="link_Amplify_ilimBackend"><path d="M710.19,505.17 C705.57,519.62 702.78,536.94 708,552 C711.8,562.97 715.1019,568.8102 722.4019,577.3902 " fill="none" id="Amplify-to-ilimBackend" style="stroke:#181818;stroke-width:1.0;"/><polygon fill="#181818" points="726.29,581.96,723.5044,572.5133,723.05,578.1518,717.4114,577.6973,726.29,581.96" style="stroke:#181818;stroke-width:1.0;"/><text fill="#000000" font-family="sans-serif" font-size="13" lengthAdjust="spacing" textLength="55.7388" x="709" y="548.0669">API Calls</text></g><!--link ilimBackend to paymentservice--><g id="link_ilimBackend_paymentservice"><path d="M832.35,628.1 C863.76,636.84 899.69,647.34 932,658 C975.53,672.36 1018.4548,688.578 1054.5848,702.758 " fill="none" id="ilimBackend-to-paymentservice" style="stroke:#181818;stroke-width:1.0;"/><polygon fill="#181818" points="1060.17,704.95,1053.2535,697.9384,1055.5156,703.1233,1050.3308,705.3854,1060.17,704.95" style="stroke:#181818;stroke-width:1.0;"/><text fill="#000000" font-family="sans-serif" font-size="13" lengthAdjust="spacing" textLength="31.04" x="978" y="671.0669">Calls</text></g><!--link ilimBackend to ilimdeliveryserv--><g id="link_ilimBackend_ilimdeliveryserv"><path d="M749,628.19 C749,650.03 749,677.16 749,698.95 " fill="none" id="ilimBackend-to-ilimdeliveryserv" style="stroke:#181818;stroke-width:1.0;"/><polygon fill="#181818" points="749,704.95,753,695.95,749,699.95,745,695.95,749,704.95" style="stroke:#181818;stroke-width:1.0;"/><text fill="#000000" font-family="sans-serif" font-size="13" lengthAdjust="spacing" textLength="31.04" x="750" y="671.0669">Calls</text></g><!--link ilimBackend to RDS--><g id="link_ilimBackend_RDS"><path d="M792.55,628.05 C820.62,644.9 854.81,671.02 871,705 C885.56,735.56 868.79,747.26 866,781 C865.38,788.53 862.52,791.29 866,798 C872.06,809.67 876.7858,815.8511 887.2458,824.0411 " fill="none" id="ilimBackend-to-RDS" style="stroke:#181818;stroke-width:1.0;"/><polygon fill="#181818" points="891.97,827.74,887.3497,819.0421,888.0332,824.6575,882.4178,825.341,891.97,827.74" style="stroke:#181818;stroke-width:1.0;"/><text fill="#000000" font-family="sans-serif" font-size="13" lengthAdjust="spacing" textLength="50.1973" x="877" y="732.5669">Queries</text></g><!--link ilimBackend to Kafka--><g id="link_ilimBackend_Kafka"><path d="M676.5,628.1 C613.19,651.69 535.67,693.6 565,751 C579.28,778.95 647.9452,811.7936 701.3252,834.1336 " fill="none" id="ilimBackend-to-Kafka" style="stroke:#181818;stroke-width:1.0;"/><polygon fill="#181818" points="706.86,836.45,700.102,829.2855,702.2476,834.5197,697.0135,836.6653,706.86,836.45" style="stroke:#181818;stroke-width:1.0;"/><text fill="#000000" font-family="sans-serif" font-size="13" lengthAdjust="spacing" textLength="61.3374" x="566" y="732.5669">Publishes</text></g><!--link paymentservice to RDS--><g id="link_paymentservice_RDS"><path d="M1105.89,751.13 C1098.91,765.9 1088.1,784.93 1074,798 C1057.96,812.87 1043.0062,822.3083 1023.5162,831.5983 " fill="none" id="paymentservice-to-RDS" style="stroke:#181818;stroke-width:1.0;"/><polygon fill="#181818" points="1018.1,834.18,1027.9454,833.9183,1022.6135,832.0286,1024.5032,826.6967,1018.1,834.18" style="stroke:#181818;stroke-width:1.0;"/><text fill="#000000" font-family="sans-serif" font-size="13" lengthAdjust="spacing" textLength="50.1973" x="1089" y="794.0669">Queries</text></g><!--link paymentservice to Kafka--><g id="link_paymentservice_Kafka"><path d="M1010.44,747.94 C974.44,756.09 934.32,767.01 899,781 C861.73,795.76 827.303,815.9892 800.543,833.2392 " fill="none" id="paymentservice-to-Kafka" style="stroke:#181818;stroke-width:1.0;"/><polygon fill="#181818" points="795.5,836.49,805.2318,834.9758,799.7025,833.781,800.8973,828.2517,795.5,836.49" style="stroke:#181818;stroke-width:1.0;"/><text fill="#000000" font-family="sans-serif" font-size="13" lengthAdjust="spacing" textLength="61.3374" x="900" y="794.0669">Publishes</text></g><!--link ilimdeliveryserv to Kafka--><g id="link_ilimdeliveryserv_Kafka"><path d="M751.41,751.26 C753.97,774.98 757.3653,806.3547 759.9353,830.1347 " fill="none" id="ilimdeliveryserv-to-Kafka" style="stroke:#181818;stroke-width:1.0;"/><polygon fill="#181818" points="760.58,836.1,763.5898,826.7223,760.0428,831.1289,755.6361,827.5819,760.58,836.1" style="stroke:#181818;stroke-width:1.0;"/><text fill="#000000" font-family="sans-serif" font-size="13" lengthAdjust="spacing" textLength="67.7168" x="757" y="794.0669">Consumes</text></g><!--link ilimdeliveryserv to SES--><g id="link_ilimdeliveryserv_SES"><path d="M705.55,751.06 C690.04,759.65 672.76,770.05 658,781 C635.5,797.69 616.7263,815.6021 600.8563,831.9721 " fill="none" id="ilimdeliveryserv-to-SES" style="stroke:#181818;stroke-width:1.0;"/><polygon fill="#181818" points="596.68,836.28,605.8165,832.6023,600.1603,832.6901,600.0726,827.0339,596.68,836.28" style="stroke:#181818;stroke-width:1.0;"/><text fill="#000000" font-family="sans-serif" font-size="13" lengthAdjust="spacing" textLength="86.4868" x="659" y="794.0669">Sends Emails</text></g><!--link ilimBackend to ECS1--><g id="link_ilimBackend_ECS1"><path d="M842.16,623.4 C851.88,625.03 861.63,626.6 871,628 C1158.28,670.9 1261.33,572.86 1520,705 C1560.9,725.89 1573.03,738.33 1590,781 C1595.82,795.63 1596.9185,807.0826 1595.9685,821.7226 " fill="none" id="ilimBackend-to-ECS1" style="stroke:#181818;stroke-width:1.0;"/><polygon fill="#181818" points="1595.58,827.71,1600.1544,818.9879,1595.9038,822.7205,1592.1712,818.4699,1595.58,827.71" style="stroke:#181818;stroke-width:1.0;"/><text fill="#000000" font-family="sans-serif" font-size="13" lengthAdjust="spacing" textLength="66.1743" x="1576" y="732.5669">Hosted on</text></g><!--link paymentservice to ECS2--><g id="link_paymentservice_ECS2"><path d="M1138.61,751.2 C1155.3,766 1178.77,785.03 1202,798 C1224.75,810.7 1245.0405,819.5616 1269.5705,828.4716 " fill="none" id="paymentservice-to-ECS2" style="stroke:#181818;stroke-width:1.0;"/><polygon fill="#181818" points="1275.21,830.52,1268.1164,823.6877,1270.5104,828.813,1265.3851,831.207,1275.21,830.52" style="stroke:#181818;stroke-width:1.0;"/><text fill="#000000" font-family="sans-serif" font-size="13" lengthAdjust="spacing" textLength="66.1743" x="1203" y="794.0669">Hosted on</text></g><!--link ilimdeliveryserv to ECS3--><g id="link_ilimdeliveryserv_ECS3"><path d="M853.27,748.37 C889.55,756.57 930.13,767.43 966,781 C981.06,786.7 983.41,791.18 998,798 C1020.26,808.4 1039.2585,816.5484 1061.9085,825.7184 " fill="none" id="ilimdeliveryserv-to-ECS3" style="stroke:#181818;stroke-width:1.0;"/><polygon fill="#181818" points="1067.47,827.97,1060.6288,820.8849,1062.8354,826.0937,1057.6267,828.3003,1067.47,827.97" style="stroke:#181818;stroke-width:1.0;"/><text fill="#000000" font-family="sans-serif" font-size="13" lengthAdjust="spacing" textLength="66.1743" x="999" y="794.0669">Hosted on</text></g><!--link ECS1 to ECR--><g id="link_ECS1_ECR"><path d="M1570.78,891.36 C1560.67,906.01 1547.87,923.45 1535,938 C1525.77,948.44 1519.1439,955.0397 1509.2839,963.9397 " fill="none" id="ECS1-to-ECR" style="stroke:#181818;stroke-width:1.0;"/><polygon fill="#181818" points="1504.83,967.96,1514.1911,964.8989,1508.5416,964.6098,1508.8307,958.9603,1504.83,967.96" style="stroke:#181818;stroke-width:1.0;"/><text fill="#000000" font-family="sans-serif" font-size="13" lengthAdjust="spacing" textLength="115.1465" x="1549" y="934.0669">Container Images</text></g><!--link ECS2 to ECR--><g id="link_ECS2_ECR"><path d="M1383.49,891.28 C1391.34,906.24 1401.92,923.97 1414,938 C1423.43,948.95 1430.6504,955.6267 1441.7504,964.1467 " fill="none" id="ECS2-to-ECR" style="stroke:#181818;stroke-width:1.0;"/><polygon fill="#181818" points="1446.51,967.8,1441.8062,959.147,1442.5437,964.7556,1436.9351,965.4931,1446.51,967.8" style="stroke:#181818;stroke-width:1.0;"/><text fill="#000000" font-family="sans-serif" font-size="13" lengthAdjust="spacing" textLength="115.1465" x="1415" y="934.0669">Container Images</text></g><!--link ECS3 to ECR--><g id="link_ECS3_ECR"><path d="M1191.06,891.07 C1215.48,906.89 1246.92,925.47 1277,938 C1321.29,956.45 1367.9788,968.5033 1408.3788,977.0133 " fill="none" id="ECS3-to-ECR" style="stroke:#181818;stroke-width:1.0;"/><polygon fill="#181818" points="1414.25,978.25,1406.2677,972.4808,1409.3574,977.2194,1404.6188,980.309,1414.25,978.25" style="stroke:#181818;stroke-width:1.0;"/><text fill="#000000" font-family="sans-serif" font-size="13" lengthAdjust="spacing" textLength="115.1465" x="1278" y="934.0669">Container Images</text></g><!--link SecretsManager to ilimBackend--><g id="link_SecretsManager_ilimBackend"><path d="M872.87,496.6 C850.21,506.36 825.22,519.23 805,535 C788.21,548.09 776.6679,562.1887 766.4379,576.9487 " fill="none" id="SecretsManager-to-ilimBackend" style="stroke:#181818;stroke-width:1.0;"/><polygon fill="#181818" points="763.02,581.88,771.4344,576.7616,765.8682,577.7705,764.8592,572.2044,763.02,581.88" style="stroke:#181818;stroke-width:1.0;"/><text fill="#000000" font-family="sans-serif" font-size="13" lengthAdjust="spacing" textLength="119.52" x="806" y="548.0669">Stores Credentials</text></g><!--link SecretsManager to paymentservice--><g id="link_SecretsManager_paymentservice"><path d="M963.61,496.83 C988.12,517.05 1023.12,548.71 1047,582 C1075.44,621.65 1094.8142,669.4324 1105.4642,699.1224 " fill="none" id="SecretsManager-to-paymentservice" style="stroke:#181818;stroke-width:1.0;"/><polygon fill="#181818" points="1107.49,704.77,1108.2163,694.948,1105.8018,700.0636,1100.6861,697.6491,1107.49,704.77" style="stroke:#181818;stroke-width:1.0;"/><text fill="#000000" font-family="sans-serif" font-size="13" lengthAdjust="spacing" textLength="119.52" x="1075" y="609.5669">Stores Credentials</text></g><!--link SecretsManager to ilimdeliveryserv--><g id="link_SecretsManager_ilimdeliveryserv"><path d="M937.41,496.79 C938.24,512.79 937.48,534.52 930,552 C900.51,620.92 834.3091,672.7272 790.5091,701.6072 " fill="none" id="SecretsManager-to-ilimdeliveryserv" style="stroke:#181818;stroke-width:1.0;"/><polygon fill="#181818" points="785.5,704.91,795.2156,703.2952,789.6743,702.1576,790.8118,696.6163,785.5,704.91" style="stroke:#181818;stroke-width:1.0;"/><text fill="#000000" font-family="sans-serif" font-size="13" lengthAdjust="spacing" textLength="119.52" x="913" y="609.5669">Stores Credentials</text></g><!--link WAFSecurity to CloudFront--><g id="link_WAFSecurity_CloudFront"><path d="M862,199.15 C862,224.44 862,259.57 862,284.86 " fill="none" id="WAFSecurity-to-CloudFront" style="stroke:#181818;stroke-width:1.0;"/><polygon fill="#181818" points="862,290.86,866,281.86,862,285.86,858,281.86,862,290.86" style="stroke:#181818;stroke-width:1.0;"/><text fill="#000000" font-family="sans-serif" font-size="13" lengthAdjust="spacing" textLength="53.2505" x="863" y="257.0669">Protects</text></g><!--link SecretsManagerSecurity to ilimBackend--><g id="link_SecretsManagerSecurity_ilimBackend"><path d="M256.63,496.51 C302.71,512.02 358,530.74 369,535 C386.63,541.83 389.83,546.75 408,552 C489.99,575.68 580.3925,588.486 649.7225,595.736 " fill="none" id="SecretsManagerSecurity-to-ilimBackend" style="stroke:#181818;stroke-width:1.0;"/><polygon fill="#181818" points="655.69,596.36,647.1548,591.4456,650.7171,595.84,646.3228,599.4023,655.69,596.36" style="stroke:#181818;stroke-width:1.0;"/><text fill="#000000" font-family="sans-serif" font-size="13" lengthAdjust="spacing" textLength="119.52" x="409" y="548.0669">Stores Credentials</text></g><!--link SecretsManagerSecurity to paymentservice--><g id="link_SecretsManagerSecurity_paymentservice"><path d="M230.54,496.75 C290.81,529.79 410.07,591.84 518,628 C614.04,660.18 641.22,657.57 741,675 C831.57,690.82 929.1975,704.1568 1004.3575,713.6668 " fill="none" id="SecretsManagerSecurity-to-paymentservice" style="stroke:#181818;stroke-width:1.0;"/><polygon fill="#181818" points="1010.31,714.42,1001.8833,709.3219,1005.3496,713.7924,1000.8791,717.2586,1010.31,714.42" style="stroke:#181818;stroke-width:1.0;"/><text fill="#000000" font-family="sans-serif" font-size="13" lengthAdjust="spacing" textLength="119.52" x="519" y="609.5669">Stores Credentials</text></g><!--link SecretsManagerSecurity to ilimdeliveryserv--><g id="link_SecretsManagerSecurity_ilimdeliveryserv"><path d="M185.68,496.6 C179.24,529.17 172.68,590.29 203,628 C258.46,696.97 611.89,701.36 636,705 C638.96,705.45 636.047,704.9621 639.077,705.4521 " fill="none" id="SecretsManagerSecurity-to-ilimdeliveryserv" style="stroke:#181818;stroke-width:1.0;"/><polygon fill="#181818" points="645,706.41,636.754,701.0245,640.0641,705.6118,635.4769,708.9219,645,706.41" style="stroke:#181818;stroke-width:1.0;"/><text fill="#000000" font-family="sans-serif" font-size="13" lengthAdjust="spacing" textLength="119.52" x="204" y="609.5669">Stores Credentials</text></g><!--link CodeCommit to CodeBuild--><g id="link_CodeCommit_CodeBuild"><path d="M1641.05,628.19 C1652.41,642.8 1668.66,661.62 1686,675 C1701.07,686.63 1713.7373,694.1496 1730.5073,702.3296 " fill="none" id="CodeCommit-to-CodeBuild" style="stroke:#181818;stroke-width:1.0;"/><polygon fill="#181818" points="1735.9,704.96,1729.5646,697.4193,1731.4061,702.768,1726.0574,704.6095,1735.9,704.96" style="stroke:#181818;stroke-width:1.0;"/><text fill="#000000" font-family="sans-serif" font-size="13" lengthAdjust="spacing" textLength="82.3481" x="1687" y="671.0669">Source Code</text></g><!--link CodeBuild to DockerImages--><g id="link_CodeBuild_DockerImages"><path d="M1789.52,751.26 C1790.07,774.98 1790.7913,806.3216 1791.3413,830.1016 " fill="none" id="CodeBuild-to-DockerImages" style="stroke:#181818;stroke-width:1.0;"/><polygon fill="#181818" points="1791.48,836.1,1795.2708,827.0099,1791.3644,831.1013,1787.273,827.1949,1791.48,836.1" style="stroke:#181818;stroke-width:1.0;"/><text fill="#000000" font-family="sans-serif" font-size="13" lengthAdjust="spacing" textLength="39.4063" x="1791" y="794.0669">Builds</text></g><!--link DockerImages to ECR--><g id="link_DockerImages_ECR"><path d="M1763.65,882.66 C1740.42,899.87 1706.1,923.24 1673,938 C1631.6,956.47 1588.0814,968.3077 1549.5014,976.7477 " fill="none" id="DockerImages-to-ECR" style="stroke:#181818;stroke-width:1.0;"/><polygon fill="#181818" points="1543.64,978.03,1553.2869,980.0142,1548.5245,976.9614,1551.5772,972.199,1543.64,978.03" style="stroke:#181818;stroke-width:1.0;"/><text fill="#000000" font-family="sans-serif" font-size="13" lengthAdjust="spacing" textLength="63.0449" x="1705" y="934.0669">Pushes to</text></g><!--link CodeDeploy to ECS1--><g id="link_CodeDeploy_ECS1"><path d="M1450.22,751.26 C1477.94,772.38 1515.0563,800.6552 1545.9463,824.1752 " fill="none" id="CodeDeploy-to-ECS1" style="stroke:#181818;stroke-width:1.0;"/><polygon fill="#181818" points="1550.72,827.81,1545.9826,819.1754,1546.7419,824.781,1541.1362,825.5403,1550.72,827.81" style="stroke:#181818;stroke-width:1.0;"/><text fill="#000000" font-family="sans-serif" font-size="13" lengthAdjust="spacing" textLength="69.4751" x="1512" y="794.0669">Deploys to</text></g><!--link CodeDeploy to ECS2--><g id="link_CodeDeploy_ECS2"><path d="M1412.06,751.26 C1403.58,772.38 1393.0069,798.7226 1383.5569,822.2426 " fill="none" id="CodeDeploy-to-ECS2" style="stroke:#181818;stroke-width:1.0;"/><polygon fill="#181818" points="1381.32,827.81,1388.387,820.9501,1383.1841,823.1705,1380.9638,817.9676,1381.32,827.81" style="stroke:#181818;stroke-width:1.0;"/><text fill="#000000" font-family="sans-serif" font-size="13" lengthAdjust="spacing" textLength="69.4751" x="1400" y="794.0669">Deploys to</text></g><!--link CodeDeploy to ECS3--><g id="link_CodeDeploy_ECS3"><path d="M1374.21,751.11 C1329.42,772.28 1266.9148,801.8265 1216.9948,825.4165 " fill="none" id="CodeDeploy-to-ECS3" style="stroke:#181818;stroke-width:1.0;"/><polygon fill="#181818" points="1211.57,827.98,1221.4162,827.7513,1216.0907,825.8437,1217.9982,820.5182,1211.57,827.98" style="stroke:#181818;stroke-width:1.0;"/><text fill="#000000" font-family="sans-serif" font-size="13" lengthAdjust="spacing" textLength="69.4751" x="1309" y="794.0669">Deploys to</text></g><!--link CodePipeline to CodeCommit--><g id="link_CodePipeline_CodeCommit"><path d="M1455.24,496.76 C1492.9,520.55 1547.1871,554.846 1584.8071,578.606 " fill="none" id="CodePipeline-to-CodeCommit" style="stroke:#181818;stroke-width:1.0;"/><polygon fill="#181818" points="1589.88,581.81,1584.4066,573.6221,1585.6526,579.14,1580.1346,580.386,1589.88,581.81" style="stroke:#181818;stroke-width:1.0;"/><text fill="#000000" font-family="sans-serif" font-size="13" lengthAdjust="spacing" textLength="84.0112" x="1541" y="548.0669">Orchestrates</text></g><!--link CodePipeline to CodeBuild--><g id="link_CodePipeline_CodeBuild"><path d="M1461.63,496.63 C1479.72,505.36 1501.44,514.67 1522,520.5 C1570.29,534.19 1586.02,520.25 1634,535 C1678.27,548.61 1692.88,550.69 1727,582 C1756.26,608.85 1759.12,621.18 1774,658 C1780.11,673.12 1782.9572,685.2278 1785.2072,699.0678 " fill="none" id="CodePipeline-to-CodeBuild" style="stroke:#181818;stroke-width:1.0;"/><polygon fill="#181818" points="1786.17,704.99,1788.674,695.4648,1785.3677,700.0548,1780.7776,696.7485,1786.17,704.99" style="stroke:#181818;stroke-width:1.0;"/><text fill="#000000" font-family="sans-serif" font-size="13" lengthAdjust="spacing" textLength="84.0112" x="1762" y="609.5669">Orchestrates</text></g><!--link CodePipeline to CodeDeploy--><g id="link_CodePipeline_CodeDeploy"><path d="M1420.09,496.91 C1420.28,544.82 1420.6962,650.77 1420.8862,698.64 " fill="none" id="CodePipeline-to-CodeDeploy" style="stroke:#181818;stroke-width:1.0;"/><polygon fill="#181818" points="1420.91,704.64,1424.8742,695.6242,1420.8902,699.64,1416.8743,695.6559,1420.91,704.64" style="stroke:#181818;stroke-width:1.0;"/><text fill="#000000" font-family="sans-serif" font-size="13" lengthAdjust="spacing" textLength="84.0112" x="1421" y="609.5669">Orchestrates</text></g><!--link NATGateway to ilimBackend--><g id="link_NATGateway_ilimBackend"><path d="M448.9,496.6 C463.3,504.73 480.14,513.61 496,520.5 C552.74,545.15 613.5003,565.125 664.0903,580.215 " fill="none" id="NATGateway-to-ilimBackend" style="stroke:#181818;stroke-width:1.0;"/><polygon fill="#181818" points="669.84,581.93,662.3588,575.5244,665.0486,580.5008,660.0721,583.1906,669.84,581.93" style="stroke:#181818;stroke-width:1.0;"/><text fill="#000000" font-family="sans-serif" font-size="13" lengthAdjust="spacing" textLength="100.7119" x="571" y="548.0669">Internet Access</text></g><!--SRC=[bLRTJzim47_tNt7ZPI0DJQDl2265j334nqBJZGUs1vCOi4Zio750tSJ_lhETf4vZeFIbzTtlFdttSp_bx8uB1lDPl8WkJyvda1MqhWdv35EdqGyCVjPC0Qs12g2PbWgUkNu02hNcsMD91N5I0oEaejaZlMUm5LsdC6-4vYM3cNZYIegI2Rq5_mZWHyWSGR-IU0iE3k92DldX8Qgipdpw39Bcjk0PfCsjOBfNE_E1hlFSVMwYalwL0gppOmol_vWgLiSrDEPx7HrR37wdB6iKryiUz1BAJV4dgjahoGsKu-mmNbHM1RzR_XRRSuPDXAYgTcm2hI9OJpf1_0NBEOMehfckdKawiR8tYo93BIzukNkB5yP43YbJJpnZ5ceKHqu-jAZeqbnYxR03cw5g72Xd1NzYQca0es2-CbZqV9fYrOcizRrYwTMvgncbGVH5UWPdzEwHMfJz5MxbB7MzcwKa29Z5AHnJTO_tYE7nzCq5DhysCzZh3VOsCvZq1fDN3EOjO3w-QvnQXHC15rJW4YfNd9Er8Z8sYd5SOrcMl5sG_XY67ZMyo7kaFGs1KucJe-2qn7Yr1Jg94uITJbbLo6NlrHt3q8HNE2s2zU1E45hLcyje0IVOt6VglEEvFH8FwZQsstb_LpTiwu0kqEaBKcWiXM2Pvb9OHcsFZawrz8W8jcT2goKaaWkzGonWT_VGH-n3b6KCrzswiZApj9aNmaCRuvP2qFBxOf6aw-gMBb3jKyaw2Za34OcI6gEm76wNX7IEZTuZ2fDYSWenBGgROoVsK_JXndoDJlPRwtNOY3vU0o8VeEwgOOgpiTRoW2d7l1hrWsdbMW9Z7m50mCqeGH-7zrutPPlF28NKWvWKSyILBYbtpND3PsFMRtRG496vOYH6l1ufGWaRxXbWWeaOmXcWYFNjL7DNXwQuPjrc4-ltRVtaBJqPhb1We5ByNu4DY1NBiIPEiJa1cz4KRMOMcAg08V7-2uoNijsCTVy3Wm-MDB3zU6cZq1kKYDnq-ZMU3jcaVmLSrHtL6nUoKPYC4P6LtA1ydaUWLTHa85tDGzAOvK4c92l6zsVQILu1xBq7c8m1tJlH5zJMjmy_L8QfQ8KFGns6ThM_ZspJM8DYZxsNoEiqRClAVDFY2-IimY7XuXxN3vROPQ3eWvi9QnJR8QktAp1Of_WYAFoZsJuK_m40]--></g></svg>